<svg width="150" height="117" viewBox="0 0 150 117" fill="none" xmlns="http://www.w3.org/2000/svg">
<path opacity="0.1" d="M48.2297 4.58905C52.8513 0.563574 60.1081 -0.253848 66.7117 0.0631414C87.4564 1.07134 106.182 10.8584 122.378 21.9296C128.242 25.9374 134.015 30.2564 137.821 35.7758C145.569 47.0128 143.272 62.5776 132.497 71.8334C128.832 74.9828 124.389 77.3969 119.826 79.538C111.718 83.3434 102.962 86.3973 93.7567 87.2676C87.1907 87.8869 80.5435 87.3835 74.018 86.5177C55.7808 84.1021 37.8844 78.7529 22.8829 69.613C16.3033 65.6022 10.1006 60.617 7.38886 54.1275C4.67715 47.638 6.41288 39.4227 13.1381 35.5777C15.9174 33.9898 19.2402 33.2722 22.4925 32.5986C27.2808 31.6065 32.1456 30.6292 36.4654 28.6142C40.9279 26.5318 46.2132 22.5048 45.3243 17.9011C44.3693 12.9526 43.6186 8.60425 48.2297 4.58905Z" fill="#EA2027"/>
<path opacity="0.1" d="M26.1381 23.6128C28.7503 23.6128 30.8678 21.5431 30.8678 18.99C30.8678 16.437 28.7503 14.3673 26.1381 14.3673C23.526 14.3673 21.4084 16.437 21.4084 18.99C21.4084 21.5431 23.526 23.6128 26.1381 23.6128Z" fill="#EA2027"/>
<path opacity="0.1" d="M16.2297 10.8452C17.8468 10.8452 19.1577 9.56393 19.1577 7.98345C19.1577 6.40297 17.8468 5.12173 16.2297 5.12173C14.6127 5.12173 13.3018 6.40297 13.3018 7.98345C13.3018 9.56393 14.6127 10.8452 16.2297 10.8452Z" fill="#EA2027"/>
<path opacity="0.1" d="M138.975 18.5498C139.97 18.5498 140.776 17.7613 140.776 16.7887C140.776 15.8161 139.97 15.0277 138.975 15.0277C137.979 15.0277 137.173 15.8161 137.173 16.7887C137.173 17.7613 137.979 18.5498 138.975 18.5498Z" fill="#EA2027"/>
<path opacity="0.1" d="M103.592 117C110.577 117 116.24 116.448 116.24 115.767C116.24 115.086 110.577 114.535 103.592 114.535C96.6059 114.535 90.9429 115.086 90.9429 115.767C90.9429 116.448 96.6059 117 103.592 117Z" fill="#EA2027"/>
<path d="M32.1321 71.5149L32.0766 74.4427L31.6321 98.1743L27.8273 106.883L14.7147 107.029V72.8636L28.3994 71.804L32.1321 71.5149Z" fill="#5F5D7E"/>
<path opacity="0.1" d="M32.1321 71.5149L32.0766 74.4427L31.6321 98.1743L27.8273 106.883L14.7147 107.029V72.8636L28.3994 71.804L32.1321 71.5149Z" fill="black"/>
<path d="M32.1321 71.5149L32.0766 74.4427L31.6321 98.1743L27.8273 106.883L28.8288 74.4984L28.8258 74.4779L28.3994 71.804L32.1321 71.5149Z" fill="#5F5D7E"/>
<path opacity="0.1" d="M28.3994 71.804L32.1321 71.5149L32.0766 74.4427L28.8258 74.4779L14.7147 74.632V72.8636L28.3994 71.804Z" fill="black"/>
<path d="M150 72.8636V106.833H146.947L134.734 98.1259V71.9053L145.646 70.903L146.315 71.2038L146.947 71.4885L150 72.8636Z" fill="#5F5D7E"/>
<path opacity="0.1" d="M150 71.2038H146.947V106.833H150V71.2038Z" fill="black"/>
<path opacity="0.1" d="M150 71.2038V73.1571L146.947 73.1909L134.734 73.3229V71.9053L145.646 70.903L146.315 71.2038L146.947 71.4885V71.2038H150Z" fill="black"/>
<path d="M150 70.0958V72.8636L0 74.4984V70.9763L14.1141 68.188L136.937 67.3075L150 70.0958Z" fill="#5F5D7E"/>
<path opacity="0.1" d="M150 70.0958V72.8636L0 74.4984V70.9763L150 70.0958Z" fill="black"/>
<path d="M103.994 28.6127H58.3063C56.4139 28.6127 54.8799 30.1121 54.8799 31.9616V65.1355C54.8799 66.9851 56.4139 68.4844 58.3063 68.4844H103.994C105.886 68.4844 107.42 66.9851 107.42 65.1355V31.9616C107.42 30.1121 105.886 28.6127 103.994 28.6127Z" fill="#474157"/>
<path d="M103.27 32.2097H59.1081V64.7349H103.27V32.2097Z" fill="#EDEDF4"/>
<path d="M57.3844 49.1789C57.7841 49.1789 58.1081 48.8622 58.1081 48.4715C58.1081 48.0809 57.7841 47.7642 57.3844 47.7642C56.9847 47.7642 56.6607 48.0809 56.6607 48.4715C56.6607 48.8622 56.9847 49.1789 57.3844 49.1789Z" fill="#E6E8EC"/>
<path d="M105.227 49.7145C105.886 49.7145 106.42 49.1922 106.42 48.5478C106.42 47.9035 105.886 47.3811 105.227 47.3811C104.567 47.3811 104.033 47.9035 104.033 48.5478C104.033 49.1922 104.567 49.7145 105.227 49.7145Z" fill="#E6E8EC"/>
<path d="M85.9504 48.5978L80.3033 45.2429C80.186 45.1795 80.0538 45.1469 79.9197 45.1486C79.7856 45.1502 79.6543 45.186 79.5386 45.2524C79.423 45.3187 79.3271 45.4134 79.2602 45.527C79.1934 45.6407 79.1581 45.7693 79.1576 45.9004V52.4251C79.1581 52.5562 79.1934 52.6849 79.2602 52.7985C79.3271 52.9121 79.423 53.0068 79.5386 53.0732C79.6543 53.1395 79.7856 53.1753 79.9197 53.1769C80.0538 53.1786 80.186 53.1461 80.3033 53.0826L85.9504 49.9156C86.0701 49.8499 86.1697 49.7542 86.2391 49.6384C86.3084 49.5226 86.345 49.3909 86.345 49.2567C86.345 49.1225 86.3084 48.9907 86.2391 48.8749C86.1697 48.7591 86.0701 48.6635 85.9504 48.5978ZM90.1967 49.1628C90.1967 47.6244 89.73 46.1206 88.8555 44.8415C87.9811 43.5625 86.7382 42.5655 85.2841 41.9768C83.83 41.3881 82.2299 41.2341 80.6862 41.5342C79.1425 41.8343 77.7245 42.5751 76.6116 43.6629C75.4987 44.7507 74.7407 46.1366 74.4337 47.6453C74.1266 49.1541 74.2842 50.718 74.8865 52.1393C75.4888 53.5605 76.5088 54.7753 77.8175 55.6299C79.1262 56.4846 80.6648 56.9407 82.2387 56.9407C84.3493 56.9407 86.3734 56.1213 87.8658 54.6626C89.3583 53.204 90.1967 51.2256 90.1967 49.1628ZM75.8213 49.1628C75.8213 47.9222 76.1977 46.7095 76.9028 45.6781C77.608 44.6466 78.6103 43.8427 79.7829 43.3679C80.9555 42.8932 82.2458 42.769 83.4907 43.011C84.7356 43.253 85.879 43.8504 86.7765 44.7276C87.674 45.6048 88.2852 46.7224 88.5328 47.9391C88.7805 49.1558 88.6534 50.4169 88.1676 51.5631C87.6819 52.7092 86.8594 53.6888 85.8041 54.378C84.7487 55.0672 83.508 55.435 82.2387 55.435C81.3959 55.4352 80.5613 55.2731 79.7826 54.958C79.004 54.6428 78.2964 54.1808 77.7005 53.5984C77.1045 53.0159 76.6318 52.3244 76.3094 51.5633C75.987 50.8022 75.8211 49.9865 75.8213 49.1628Z" fill="#EA2027"/>
<path d="M120.703 74.7186C120.673 74.5391 120.615 74.365 120.533 74.202C120.647 73.8219 120.721 73.5886 120.721 73.5886C120.721 73.5886 120.721 73.5328 120.703 73.4418C120.613 72.904 120.327 72.4162 119.898 72.0687C119.469 71.7211 118.925 71.5374 118.368 71.5516C117.467 71.5677 115.758 71.6264 113.863 71.8348C113.971 71.0937 114.101 70.2073 114.236 69.2945L114.483 69.3209C114.541 69.3209 114.601 69.3209 114.661 69.3297H114.74C114.938 69.3418 115.133 69.2834 115.29 69.1654C115.328 69.1289 115.357 69.0836 115.373 69.0337C115.389 68.9837 115.392 68.9307 115.382 68.8792C115.372 68.8277 115.349 68.7795 115.316 68.7388C115.282 68.6981 115.239 68.6661 115.189 68.6459C115.411 68.6674 115.634 68.6347 115.839 68.5507C116.045 68.4666 116.225 68.3339 116.365 68.1645C116.492 67.9902 116.561 67.7814 116.561 67.5672C116.561 67.353 116.492 67.1442 116.365 66.9699C116.048 66.5297 115.377 66.2362 115.341 65.7181C115.321 65.4246 115.523 65.1604 115.68 64.9007C116.06 64.2522 116.212 63.4999 116.112 62.759C116.013 62.0181 115.667 61.3295 115.129 60.7989C114.918 60.594 114.695 60.4005 114.462 60.2192C114.132 59.0334 113.787 57.9739 113.685 57.9401C113.553 57.8976 113.326 57.6187 113.11 57.3795C113.129 57.1777 113.126 56.9744 113.099 56.7734C112.94 55.7461 111.898 55.0124 111.324 54.1054C110.751 53.1985 110.647 52.0876 110.794 51.0485C110.941 50.0095 111.312 49.0042 111.614 47.9902C111.839 47.2373 112.027 46.4375 111.775 45.6905C111.596 45.1578 111.207 44.697 110.806 44.2641C109.844 43.2236 108.734 42.2491 107.365 41.6225C106.413 41.1839 105.37 40.966 104.318 40.9856H104.308L104.143 40.9944L104.026 41.0017L103.908 41.0135L103.784 41.0252C103.656 41.0414 103.53 41.0604 103.404 41.0854C102.489 40.8866 101.556 40.7843 100.619 40.7801H100.497C100.219 40.7641 99.9424 40.8278 99.7012 40.9636C99.3678 41.191 99.3258 41.599 99.2252 41.9542C99.0445 42.5485 98.6635 43.0657 98.1441 43.4217C97.7853 43.6741 97.3633 43.862 97.021 44.1261C96.6787 44.3903 96.4114 44.7865 96.503 45.1769C96.5796 45.5042 96.8919 45.7478 97.2537 45.896C97.2102 45.9488 97.1651 46.0002 97.1231 46.0545C97.1937 46.0824 97.2733 46.1073 97.3378 46.1279C97.7883 46.2585 98.2732 46.2746 98.7297 46.3935C98.8554 46.4263 98.9787 46.467 99.0991 46.5153C98.6931 47.2617 98.4811 48.0943 98.482 48.9397C98.4837 49.8785 98.7442 50.7994 99.2362 51.6057C99.7282 52.412 100.433 53.0737 101.278 53.5214C101.278 53.5712 101.278 53.6197 101.278 53.6681C101.324 55.2002 101.206 57.064 100.404 57.3795C99.6021 57.695 98.8348 58.0517 98.3618 58.2821L98.2117 58.3598C98.0871 58.3041 97.9624 58.2454 97.8408 58.1837C97.8408 58.1837 97.2027 58.1104 97.3138 58.5858C97.3138 58.5858 95.3844 58.2923 94.3258 59.098C93.2673 59.9037 91.53 61.5855 91.1892 62.0243C90.8483 62.4631 88.2132 63.4229 88.2132 63.4229C88.2132 63.4229 89.0435 62.2885 88.6847 60.8987C88.6847 60.8987 88.2883 59.2228 88.4775 58.5506C88.6666 57.8785 89.1576 55.3837 89.1576 55.3837C89.1576 55.3837 89.2267 52.7509 87.7567 51.5431C86.2868 50.3353 85.2642 49.3418 85.8318 50.5158C86.0799 51.054 86.3576 51.5787 86.6636 52.0876C86.6636 52.0876 83.1486 52.9035 84.3964 54.1773C85.6441 55.4512 85.9835 55.4526 85.9835 55.4526C85.9835 55.4526 85.5675 58.5976 85.491 59.1831C85.4144 59.7687 84.7402 64.23 84.7402 64.23C84.7402 64.23 84.7027 66.3521 85.0811 66.6808C85.0811 66.6808 85.3288 68.0471 86.8949 68.0016C86.8949 68.0016 89.8799 67.9282 90.7117 67.5995C91.5435 67.2708 94.4144 65.5141 94.7177 65.6242C94.7397 65.6328 94.7596 65.6458 94.7763 65.6623C94.7924 65.6759 94.8074 65.6906 94.8213 65.7064C94.521 66.3565 93.8093 68.5637 94.1126 69.6482C94.1126 69.6482 93.8483 72.7198 95.4354 73.7074C95.4354 73.7074 97.7402 77.5113 96.8708 79.5585C96.8018 79.7244 96.7402 79.877 96.6832 80.0252C95.3633 78.9554 93.3498 77.9706 90.2748 77.4262C89.9609 77.3704 89.6486 77.3029 89.3393 77.2295C88.4654 77.0226 86.0615 76.8333 84.9174 80.5476C84.6506 81.4111 84.3111 82.2514 83.9024 83.0601C83.4519 83.9509 82.9519 85.2277 82.9414 86.4941C82.9159 88.2699 83.8543 90.0295 87.2597 90.6752C87.2973 91.996 87.4519 93.5692 87.9144 94.7007C88.8588 97.0047 90.3708 100.735 90.3708 100.735C90.3708 100.735 92.1847 104.539 92.2988 106.074C92.3724 107.079 92.4805 108.397 92.4054 109.303C92.4054 109.358 92.3964 109.411 92.3904 109.464C92.2348 109.628 92.065 109.779 91.8829 109.915C91.6186 110.061 90.7492 110.976 90.7492 111.194C90.7511 111.404 90.7702 111.613 90.8063 111.82C90.3949 112.17 90.1697 112.553 90.1697 112.935C90.1697 114.919 95.9309 116.527 103.038 116.527C110.144 116.527 115.904 114.913 115.904 112.935C115.904 111.124 111.099 109.627 104.856 109.381C106.158 108.873 107.314 108.34 107.793 107.913C107.896 107.835 107.974 107.73 108.019 107.611L106.811 104.868C106.811 104.868 106.716 104.888 106.577 104.928L106.492 104.805C105.955 104.005 104.92 102.411 104.92 101.978C104.92 101.818 104.647 100.795 104.251 99.3939V94.8958C108.194 95.4829 113.275 94.6845 113.275 94.6845L113.297 94.6728H113.396V94.6199C114.08 94.2501 117.497 92.2939 118.51 89.6993C118.811 88.942 118.437 87.8575 117.694 86.6981C118.213 85.4375 119.495 82.181 119.368 80.8823C119.368 80.8133 119.359 80.7355 119.359 80.6592C119.371 80.5265 119.376 80.3932 119.374 80.26C119.524 78.3522 120.725 74.8668 120.725 74.8668C120.725 74.8668 120.718 74.8066 120.703 74.7186ZM95.1772 66.242C95.4504 66.7116 95.7432 67.3119 95.8588 67.5555C95.8588 67.5555 95.4594 66.8364 95.1847 66.242H95.1772ZM95.4624 107.348L95.4339 107.358V107.211C95.4176 106.829 95.4271 106.445 95.4624 106.064C95.4666 105.858 95.4224 105.654 95.3333 105.468C94.8705 104.332 94.5611 103.141 94.4129 101.927C94.2627 100.647 94.1381 99.2515 94.2162 98.8964C94.3333 98.3519 94.4294 94.2281 94.2838 92.1956L96.6081 92.7063L99.3108 98.0922C99.3108 98.0922 101.05 100.722 101.589 102.797V104.875C101.431 105.494 101.155 106.079 100.776 106.598C100.417 107.078 100.068 107.564 99.7432 108.066C99.6441 108.221 99.5345 108.381 99.4249 108.531C99.3889 108.531 97.6126 108.632 97.3108 108.958C97.1246 109.159 96.8003 109.476 96.7462 109.794L96.6697 109.806C96.3213 108.792 95.47 107.348 95.47 107.348H95.4624Z" fill="url(#paint0_linear)"/>
<path opacity="0.1" d="M106.896 105.462L106.296 107.37L103.743 109.535L99.9895 110.588C99.9895 110.588 98.2252 109.645 98.8258 109.461C98.9925 109.41 99.1907 109.223 99.3919 108.98C99.1817 109.728 100.853 108.764 100.853 108.764C100.853 108.764 105.17 105.756 105.62 105.425C105.915 105.234 106.24 105.089 106.581 104.995C106.769 105.282 106.896 105.462 106.896 105.462Z" fill="black"/>
<path d="M106.896 105.462L106.296 107.37L103.743 109.535L99.9895 110.588C99.9895 110.588 98.2252 109.645 98.8258 109.461C98.9925 109.41 99.1907 109.223 99.3919 108.98C99.5731 108.754 99.7406 108.518 99.8934 108.273C100.215 107.768 100.563 107.28 100.919 106.805C101.438 106.083 101.764 105.245 101.866 104.367C102.129 102.349 99.464 98.2771 99.464 98.2771L94.6216 88.5546L101.378 89.3617C101.378 89.3617 105.02 101.579 105.02 102.166C105.02 102.606 106.047 104.199 106.581 105.001C106.769 105.282 106.896 105.462 106.896 105.462Z" fill="#FDC2CC"/>
<path d="M103.149 116.758C110.207 116.758 115.929 115.145 115.929 113.155C115.929 111.165 110.207 109.552 103.149 109.552C96.09 109.552 90.3679 111.165 90.3679 113.155C90.3679 115.145 96.09 116.758 103.149 116.758Z" fill="#5F5D7E"/>
<path d="M108.098 107.81C108.052 107.93 107.974 108.035 107.872 108.114C106.944 108.946 103.474 110.183 101.33 110.855C100.768 111.047 100.195 111.206 99.6141 111.332C99.0886 111.369 98 111.039 97.2492 110.588C96.4985 110.138 97.1742 109.498 97.4775 109.168C97.7808 108.838 99.5796 108.739 99.5796 108.739C98.7162 110.144 100.854 108.911 100.854 108.911C100.854 108.911 105.171 105.902 105.622 105.572C106.072 105.242 106.898 105.059 106.898 105.059L108.098 107.81Z" fill="#EA2027"/>
<path opacity="0.3" d="M108.098 107.81C108.052 107.93 107.974 108.035 107.872 108.114C106.944 108.946 103.474 110.183 101.33 110.855C100.768 111.047 100.195 111.206 99.6141 111.332C99.0886 111.369 98 111.039 97.2492 110.588C96.4985 110.138 97.1742 109.498 97.4775 109.168C97.7808 108.838 99.5796 108.739 99.5796 108.739C98.7162 110.144 100.854 108.911 100.854 108.911C100.854 108.911 105.171 105.902 105.622 105.572C106.072 105.242 106.898 105.059 106.898 105.059L108.098 107.81Z" fill="black"/>
<path opacity="0.1" d="M107.872 108.117C106.944 108.949 103.474 110.186 101.33 110.858C103.273 109.25 106.532 108.409 107.872 108.117Z" fill="black"/>
<path opacity="0.1" d="M103.149 112.715C104.561 112.715 105.706 112.392 105.706 111.994C105.706 111.596 104.561 111.274 103.149 111.274C101.736 111.274 100.592 111.596 100.592 111.994C100.592 112.392 101.736 112.715 103.149 112.715Z" fill="black"/>
<path d="M104.354 92.9895H101.727V111.994H104.354V92.9895Z" fill="#5F5D7E"/>
<path opacity="0.1" d="M104.354 93.9317V96.133C103.829 95.9745 102.629 95.3067 101.727 94.7814V92.988H102.275L104.354 93.9317Z" fill="black"/>
<path d="M98.1637 84.7155C98.1637 84.7155 106.839 82.5332 108.999 80.8999C111.158 79.2665 119.637 86.952 118.517 89.8519C117.396 92.7518 113.318 94.8518 113.318 94.8518C113.318 94.8518 102.041 96.6452 100.12 92.9044C98.1997 89.1636 98.1637 84.7155 98.1637 84.7155Z" fill="#474157"/>
<path opacity="0.1" d="M98.1637 84.7155C98.1637 84.7155 106.839 82.5332 108.999 80.8999C111.158 79.2665 119.637 86.952 118.517 89.8519C117.396 92.7518 113.318 94.8518 113.318 94.8518C113.318 94.8518 102.041 96.6452 100.12 92.9044C98.1997 89.1636 98.1637 84.7155 98.1637 84.7155Z" fill="black"/>
<path d="M97.4129 83.835C97.4129 83.835 106.089 81.6527 108.248 80.0193C110.407 78.386 118.886 86.0715 117.766 88.9714C116.646 91.8712 112.568 93.9713 112.568 93.9713C112.568 93.9713 101.29 95.7646 99.3694 92.0238C97.4489 88.2831 97.4129 83.835 97.4129 83.835Z" fill="#474157"/>
<path d="M89.3664 63.8235L88.428 63.4904C88.428 63.4904 89.2538 62.353 88.8979 60.9589C88.8979 60.9589 88.503 59.2771 88.6907 58.5961C88.8784 57.9152 89.3664 55.4189 89.3664 55.4189C89.3664 55.4189 89.4355 52.7773 87.9745 51.5666C86.5135 50.3559 85.5 49.3653 86.0631 50.5393C86.309 51.0794 86.5847 51.606 86.8889 52.1169C86.8889 52.1169 83.3979 52.9343 84.6367 54.214C85.8754 55.4937 86.2132 55.4923 86.2132 55.4923C86.2132 55.4923 85.8003 58.6475 85.7252 59.2345C85.6502 59.8215 84.9745 64.2975 84.9745 64.2975C84.9745 64.2975 84.937 66.4255 85.3123 66.7557C85.3957 67.153 85.625 67.5067 85.957 67.75C86.2889 67.9933 86.7006 68.1095 87.1141 68.0765C87.3814 68.0721 90.5676 64.6307 89.3664 63.8235Z" fill="#FDC2CC"/>
<path d="M112.039 57.0728V59.1274L109.862 59.8215L106.153 62.4895L105.17 63.1969L100.778 61.4725L98 58.6108C98 58.6108 98.1351 58.5389 98.3694 58.42L98.5195 58.3422C98.9895 58.1118 99.7297 57.7552 100.548 57.4368C101.366 57.1183 101.462 55.2516 101.416 53.7136V53.5668C101.378 52.4882 101.266 51.6062 101.266 51.6062C101.266 51.6062 101.724 51.5211 102.39 51.4242C104.239 51.1557 107.688 50.7932 107.384 51.8997C107.296 52.2759 107.296 52.6668 107.384 53.0429C107.393 53.084 107.402 53.1266 107.413 53.1677C107.725 54.5017 108.692 55.8988 108.692 55.8988L111.695 56.9554L111.779 56.9848L112.039 57.0728Z" fill="#FDC2CC"/>
<path d="M112.039 57.6965V57.0728C112.275 57.0331 112.516 57.0331 112.752 57.0728C113.015 57.1462 113.513 57.9166 113.739 57.99C113.964 58.0634 115.342 63.0897 115.192 63.53C115.042 63.9703 113.623 73.91 113.623 73.91L110.763 76.9918L110.2 68.5167L112.039 63.4904V57.6965Z" fill="#FDC2CC"/>
<path d="M97.2117 80.7737C97.2117 80.7737 94.5976 81.324 94.9294 82.1311C95.2613 82.9383 96.7237 82.975 96.7237 82.975L97.2117 80.7737Z" fill="#FDC2CC"/>
<path d="M100.853 64.4766L98.8634 68.6664L96.4985 70.3541L96.0856 67.7463C96.0856 67.7463 95.2868 66.0219 94.943 65.7299C94.9263 65.7133 94.9064 65.7003 94.8844 65.6917C94.5841 65.5816 91.7313 67.3427 90.9054 67.6729C90.0796 68.0031 87.1141 68.0764 87.1141 68.0764L88.428 63.4904C88.428 63.4904 91.0556 62.5365 91.3934 62.0962C91.7313 61.656 93.458 59.9683 94.509 59.1611C95.5601 58.354 97.4775 58.6475 97.4775 58.6475L97.5075 58.6592L98 58.8676L99.4265 62.2797L100.853 64.4766Z" fill="#FDC2CC"/>
<path d="M95.6351 106.272C95.5998 106.655 95.5902 107.039 95.6066 107.423C95.6171 107.832 95.6351 108.18 95.6351 108.18L94.7717 109.941C94.7717 109.941 91.8063 110.895 92.2943 110.491C92.4639 110.352 92.551 109.99 92.5946 109.51C92.6681 108.603 92.5615 107.28 92.488 106.272C92.3753 104.731 90.5735 100.916 90.5735 100.916C90.5735 100.916 89.0721 97.1735 88.1336 94.8621C87.1952 92.5507 87.533 88.3682 87.533 88.3682C87.533 88.3682 87.6832 85.213 88.3588 84.2591C89.0345 83.3052 91.6621 82.975 91.6621 82.975L92.8949 86.9711C92.8949 86.9711 93.9084 90.7133 94.2838 91.2637C94.6591 91.814 94.5465 98.3813 94.3964 99.0783C94.3198 99.435 94.4489 100.839 94.5931 102.119C94.7402 103.336 95.047 104.53 95.506 105.671C95.5956 105.859 95.6398 106.065 95.6351 106.272Z" fill="#FDC2CC"/>
<path opacity="0.1" d="M95.6351 108.18L94.7718 109.941C94.7718 109.941 91.8063 110.895 92.2943 110.491C92.464 110.352 92.551 109.99 92.5946 109.51C92.7012 109.405 92.8153 109.291 92.9324 109.174C93.6871 108.409 94.6011 107.812 95.6126 107.423C95.6171 107.832 95.6351 108.18 95.6351 108.18Z" fill="black"/>
<path d="M96.9895 110.801C96.9903 110.808 96.9903 110.815 96.9895 110.822C96.8393 111.519 94.3618 112.473 94.3618 112.473C94.3618 112.473 92.7853 112.729 91.8844 112.95C91.8154 112.968 91.7438 112.974 91.6726 112.969C90.9774 112.917 90.9459 111.61 90.9459 111.409C90.9459 111.208 91.8093 110.271 92.0721 110.125C92.3692 109.884 92.6481 109.622 92.9069 109.342C93.6775 108.562 94.6104 107.953 95.6426 107.556C95.6426 107.556 97.1096 110.078 96.9895 110.801Z" fill="#EA2027"/>
<path opacity="0.3" d="M96.9895 110.801C96.9903 110.808 96.9903 110.815 96.9895 110.822C96.8393 111.519 94.3618 112.473 94.3618 112.473C94.3618 112.473 92.7853 112.729 91.8844 112.95C91.8154 112.968 91.7438 112.974 91.6726 112.969C90.9774 112.917 90.9459 111.61 90.9459 111.409C90.9459 111.208 91.8093 110.271 92.0721 110.125C92.3739 109.881 92.657 109.615 92.9189 109.331C93.6732 108.562 94.5878 107.962 95.6006 107.57L95.6426 107.553C95.6426 107.553 97.1096 110.078 96.9895 110.801Z" fill="black"/>
<path opacity="0.1" d="M96.9895 110.801C96.9903 110.808 96.9903 110.815 96.9895 110.822C96.8394 111.519 94.3619 112.473 94.3619 112.473C94.3619 112.473 92.7853 112.729 91.8844 112.95C91.8155 112.968 91.7438 112.974 91.6727 112.969C92.4895 112.421 94.47 111.108 94.7372 111.078C95.0045 111.049 96.3213 110.679 96.9895 110.801Z" fill="black"/>
<path opacity="0.1" d="M107.419 53.1677C106.491 53.9147 105.638 53.8075 104.342 53.8075C103.405 53.8075 102.188 54.1289 101.42 53.7165C101.389 52.5704 101.27 51.6062 101.27 51.6062C101.27 51.6062 107.802 50.3955 107.389 51.8997C107.294 52.3186 107.305 52.7535 107.419 53.1677Z" fill="black"/>
<path d="M109.374 48.9705C109.374 50.362 108.808 51.6964 107.802 52.6803C106.795 53.6642 105.43 54.217 104.006 54.217C103.868 54.217 103.73 54.217 103.595 54.2023C102.554 54.1238 101.559 53.7503 100.732 53.1276C99.9046 52.5049 99.2813 51.6599 98.938 50.6962C98.5948 49.7325 98.5465 48.6919 98.7992 47.7018C99.0518 46.7117 99.5944 45.8151 100.36 45.1218C101.126 44.4285 102.083 43.9686 103.112 43.7984C104.142 43.6282 105.199 43.7551 106.156 44.1635C107.113 44.572 107.927 45.2443 108.499 46.0981C109.071 46.9519 109.375 47.9501 109.375 48.9705H109.374Z" fill="#FDC2CC"/>
<path opacity="0.1" d="M99.4264 62.2826L100.853 64.4839L98.8633 68.6738L96.4985 70.3614L96.0856 67.7463C96.0856 67.7463 95.2868 66.0219 94.9429 65.7299C95.042 65.4936 95.1096 65.385 95.1096 65.4716C95.1096 65.8385 96.033 67.4895 96.033 67.4895C98.8859 66.5355 98 62.83 98 62.83C98 62.83 97.6456 59.528 97.5075 58.6592L98 58.8676L99.4264 62.2826Z" fill="black"/>
<path opacity="0.1" d="M112.039 57.0728V59.1274L109.862 59.8215L106.153 62.4895L105.17 63.1969L100.778 61.4725L98 58.6108C98 58.6108 98.1351 58.5389 98.3694 58.42L98.5195 58.3423C100.452 59.2008 102.544 59.5163 104.038 59.6293C104.725 59.6862 105.415 59.7014 106.104 59.6748C111.76 58.7943 111.928 57.4588 111.787 56.9848L112.039 57.0728Z" fill="black"/>
<path d="M113.653 90.3464C112.237 91.025 110.784 91.6251 109.299 92.1442C106.709 93.0614 101.003 91.8507 100.29 91.6672C99.5766 91.4838 94.0961 89.3559 91.994 88.5487C89.8919 87.7416 89.3663 88.402 88.8784 88.3286C88.3904 88.2552 88.0525 87.338 87.9775 87.0812C87.9024 86.8243 89.3288 84.5863 90.1171 83.449C90.9054 82.3116 93.2703 82.5318 93.6081 82.4584C93.9459 82.385 96.3108 82.4584 96.3108 82.4584C96.3108 82.4584 96.1606 81.7246 97.024 79.6701C97.8874 77.6155 95.5976 73.7999 95.5976 73.7999C94.021 72.8093 94.2838 69.7275 94.2838 69.7275C93.9084 68.37 95.1096 65.2514 95.1096 65.6183C95.1096 65.9852 96.033 67.6362 96.033 67.6362C98.8859 66.6823 98 62.9768 98 62.9768C98 62.9768 97.5871 59.1244 97.4775 58.6475C97.3679 58.1705 98 58.2439 98 58.2439C98.1221 58.3056 98.2452 58.3643 98.3694 58.42C100.345 59.3299 102.507 59.6616 104.042 59.776C104.729 59.833 105.419 59.8482 106.108 59.8215C112.965 58.74 111.751 57.0156 111.706 56.9539L112.039 57.0699C114.517 58.8309 113.766 64.6644 113.766 64.6644L112.838 69.0186L112.149 72.2619C112.149 72.2619 114.589 86.7172 114.814 87.451C115.039 88.1848 113.653 90.3464 113.653 90.3464Z" fill="#EA2027"/>
<path opacity="0.1" d="M95.3724 83.7425C95.2222 83.8526 93.533 87.2646 94.7718 88.2185C96.0105 89.1724 95.3724 83.7425 95.3724 83.7425Z" fill="black"/>
<path opacity="0.1" d="M96.5735 84.2224C96.6111 84.3324 100.102 89.7624 102.017 90.2026L96.5735 84.2224Z" fill="black"/>
<path opacity="0.1" d="M104.983 41.2542L104.425 41.3701C104.579 41.3146 104.736 41.269 104.896 41.2336L104.983 41.2542Z" fill="black"/>
<path opacity="0.1" d="M113.395 64.6644L112.344 69.0157C111.808 68.7766 111.315 68.454 110.884 68.0603C110.55 67.7492 110.249 67.3926 109.818 67.1886C109.264 66.9259 108.596 66.9611 107.967 66.9391C107.181 66.9104 106.403 66.7802 105.652 66.5517C105.434 66.4982 105.229 66.4013 105.051 66.267C104.694 65.9588 104.718 65.4613 104.751 65.0269C104.816 64.1825 104.824 63.3349 104.773 62.4895C104.764 62.331 104.752 62.1725 104.739 62.014C104.679 61.3052 104.483 60.4834 103.742 60.1796C103.36 60.0328 102.905 60.0446 102.541 59.867C102.488 59.8411 102.438 59.8107 102.39 59.776C101.85 59.4062 101.8 58.6651 101.821 58.0414C101.853 57.1843 101.884 56.3268 101.913 55.4688C101.94 55.0456 101.931 54.6209 101.884 54.1994C101.848 53.9194 101.769 53.6463 101.65 53.3893C101.324 52.7083 100.646 52.1404 100.524 51.4213C100.517 51.3879 100.513 51.354 100.511 51.32C100.447 50.6773 100.862 50.0785 101.008 49.446C101.299 48.1736 100.32 46.7795 98.8799 46.414C98.4294 46.2996 97.9459 46.2776 97.497 46.1469C97.4252 46.126 97.3545 46.1015 97.2853 46.0736C98.3724 44.6559 100.236 43.7255 102.351 43.7255C105.704 43.7255 108.423 46.0736 108.423 48.972C108.423 50.6156 107.548 52.0817 106.18 53.0444C106.189 53.0855 106.2 53.1281 106.212 53.1691C106.565 54.5031 107.659 55.9002 107.659 55.9002L111.059 56.9569L111.437 57.0743C114.245 58.8339 113.395 64.6644 113.395 64.6644Z" fill="black"/>
<path opacity="0.1" d="M115.24 68.8795C115.207 68.8795 115.176 68.872 115.144 68.866C115.177 68.8626 115.21 68.8672 115.24 68.8795Z" fill="black"/>
<path d="M103.631 41.1089C102.691 40.8955 101.73 40.7858 100.766 40.7816C100.452 40.7816 100.116 40.7977 99.8649 40.9665C99.5331 41.194 99.491 41.6049 99.3919 41.96C99.2126 42.5531 98.8345 43.07 98.3183 43.4276C97.9625 43.6815 97.5436 43.8678 97.2027 44.1349C96.8619 44.402 96.6021 44.7983 96.6877 45.1886C96.7733 45.579 97.2222 45.8799 97.6727 46.0046C98.1232 46.1293 98.6021 46.1513 99.0556 46.2717C100.496 46.6371 101.473 48.0327 101.182 49.3022C101.032 49.9347 100.622 50.5334 100.685 51.1762C100.758 51.9437 101.484 52.5352 101.824 53.2469C102.135 53.8956 102.114 54.6235 102.09 55.325L101.999 57.899C101.975 58.577 102.035 59.393 102.719 59.7247C103.086 59.9008 103.542 59.8817 103.92 60.0373C104.662 60.3396 104.857 61.1629 104.917 61.8702C105.003 62.8726 105.007 63.8801 104.929 64.8831C104.895 65.3234 104.871 65.815 105.23 66.1232C105.407 66.258 105.612 66.355 105.83 66.4079C106.581 66.6364 107.36 66.7666 108.146 66.7953C108.776 66.8188 109.443 66.7836 109.997 67.0448C110.428 67.2488 110.728 67.6069 111.063 67.9165C112.023 68.775 113.247 69.2988 114.544 69.4061C114.821 69.4295 115.137 69.4237 115.33 69.249C115.524 69.0744 115.41 68.6972 115.134 68.7193C115.368 68.7578 115.609 68.7343 115.832 68.6512C116.054 68.5681 116.249 68.4285 116.398 68.2467C116.524 68.0712 116.592 67.8618 116.592 67.6472C116.592 67.4326 116.524 67.2232 116.398 67.0477C116.084 66.6075 115.417 66.3139 115.381 65.7915C115.362 65.498 115.562 65.2324 115.718 64.9711C116.094 64.3208 116.244 63.5685 116.146 62.8275C116.047 62.0864 115.705 61.3967 115.171 60.862C114.467 60.1503 113.411 59.6102 113.165 58.6974C113.002 58.0869 113.249 57.4456 113.155 56.8248C113.005 55.7975 111.964 55.0637 111.392 54.148C110.82 53.2323 110.719 52.1243 110.865 51.0823C111.011 50.0403 111.38 49.0277 111.68 48.0151C111.904 47.2593 112.089 46.4566 111.839 45.7067C111.661 45.174 111.276 44.7117 110.877 44.2758C109.92 43.2324 108.82 42.255 107.459 41.6342C106.099 41.0135 104.441 40.7728 102.997 41.2321" fill="#474157"/>
<path opacity="0.1" d="M103.631 41.1089C102.691 40.8955 101.73 40.7858 100.766 40.7816C100.452 40.7816 100.116 40.7977 99.8649 40.9665C99.5331 41.194 99.491 41.6049 99.3919 41.96C99.2126 42.5531 98.8345 43.07 98.3183 43.4276C97.9625 43.6815 97.5436 43.8678 97.2027 44.1349C96.8619 44.402 96.6021 44.7983 96.6877 45.1886C96.7733 45.579 97.2222 45.8799 97.6727 46.0046C98.1232 46.1293 98.6021 46.1513 99.0556 46.2717C100.496 46.6371 101.473 48.0327 101.182 49.3022C101.032 49.9347 100.622 50.5334 100.685 51.1762C100.758 51.9437 101.484 52.5352 101.824 53.2469C102.135 53.8956 102.114 54.6235 102.09 55.325L101.999 57.899C101.975 58.577 102.035 59.393 102.719 59.7247C103.086 59.9008 103.542 59.8817 103.92 60.0373C104.662 60.3396 104.857 61.1629 104.917 61.8702C105.003 62.8726 105.007 63.8801 104.929 64.8831C104.895 65.3234 104.871 65.815 105.23 66.1232C105.407 66.258 105.612 66.355 105.83 66.4079C106.581 66.6364 107.36 66.7666 108.146 66.7953C108.776 66.8188 109.443 66.7836 109.997 67.0448C110.428 67.2488 110.728 67.6069 111.063 67.9165C112.023 68.775 113.247 69.2988 114.544 69.4061C114.821 69.4295 115.137 69.4237 115.33 69.249C115.524 69.0744 115.41 68.6972 115.134 68.7193C115.368 68.7578 115.609 68.7343 115.832 68.6512C116.054 68.5681 116.249 68.4285 116.398 68.2467C116.524 68.0712 116.592 67.8618 116.592 67.6472C116.592 67.4326 116.524 67.2232 116.398 67.0477C116.084 66.6075 115.417 66.3139 115.381 65.7915C115.362 65.498 115.562 65.2324 115.718 64.9711C116.094 64.3208 116.244 63.5685 116.146 62.8275C116.047 62.0864 115.705 61.3967 115.171 60.862C114.467 60.1503 113.411 59.6102 113.165 58.6974C113.002 58.0869 113.249 57.4456 113.155 56.8248C113.005 55.7975 111.964 55.0637 111.392 54.148C110.82 53.2323 110.719 52.1243 110.865 51.0823C111.011 50.0403 111.38 49.0277 111.68 48.0151C111.904 47.2593 112.089 46.4566 111.839 45.7067C111.661 45.174 111.276 44.7117 110.877 44.2758C109.92 43.2324 108.82 42.255 107.459 41.6342C106.099 41.0135 104.441 40.7728 102.997 41.2321" fill="black"/>
<path opacity="0.1" d="M95.5976 73.8028C95.5976 73.8028 96.8739 74.2798 98.2252 72.959C99.5766 71.6382 95.5976 73.8028 95.5976 73.8028Z" fill="black"/>
<g opacity="0.1">
<path opacity="0.1" d="M104.195 41.0868C104.443 41.0387 104.694 41.0078 104.946 40.9944C104.595 40.9734 104.244 40.9843 103.895 41.0267L104.195 41.0868Z" fill="black"/>
<path opacity="0.1" d="M111.724 67.9165C111.387 67.6068 111.089 67.2488 110.656 67.0448C110.104 66.7835 109.435 66.8188 108.805 66.7953C108.019 66.7672 107.24 66.6369 106.49 66.4079C106.271 66.355 106.067 66.258 105.889 66.1232C105.532 65.815 105.557 65.3189 105.589 64.8831C105.666 63.8801 105.662 62.8726 105.577 61.8702C105.515 61.1629 105.321 60.3396 104.578 60.0372C104.198 59.8817 103.743 59.9008 103.377 59.7247C102.692 59.393 102.626 58.577 102.655 57.899C102.686 57.041 102.716 56.1835 102.746 55.3264C102.772 54.6235 102.791 53.8956 102.481 53.2469C102.14 52.5352 101.414 51.9452 101.341 51.1762C101.279 50.5349 101.694 49.9347 101.839 49.3022C102.131 48.0298 101.152 46.6371 99.7117 46.2717C99.2613 46.1572 98.7778 46.1337 98.3289 46.0046C97.8799 45.8754 97.4445 45.5966 97.3514 45.1974C97.2583 44.7983 97.5241 44.4108 97.8649 44.1423C98.2057 43.8737 98.6246 43.6888 98.982 43.4349C99.4982 43.0776 99.8759 42.5606 100.054 41.9674C100.155 41.6122 100.204 41.2028 100.527 40.9738C100.712 40.8617 100.925 40.8008 101.143 40.7977C101.009 40.7977 100.875 40.7904 100.743 40.7904C100.429 40.7904 100.093 40.8065 99.8424 40.9738C99.5105 41.2028 99.4685 41.6122 99.3694 41.9674C99.1901 42.5604 98.812 43.0773 98.2958 43.4349C97.94 43.6888 97.521 43.8752 97.1802 44.1423C96.8394 44.4094 96.5796 44.8056 96.6652 45.1974C96.7508 45.5893 97.1952 45.874 97.6442 46.0046C98.0931 46.1352 98.5736 46.1513 99.0271 46.2717C100.467 46.6371 101.444 48.0327 101.153 49.3022C101.003 49.9347 100.593 50.5349 100.656 51.1762C100.73 51.9452 101.455 52.5352 101.796 53.2469C102.107 53.8956 102.087 54.6235 102.062 55.3264C102.031 56.1835 102 57.041 101.97 57.899C101.946 58.577 102.006 59.393 102.691 59.7247C103.057 59.9008 103.514 59.8817 103.892 60.0372C104.634 60.3396 104.829 61.1629 104.889 61.8702C104.975 62.8726 104.979 63.8801 104.901 64.8831C104.866 65.3233 104.842 65.815 105.201 66.1232C105.379 66.258 105.583 66.355 105.802 66.4079C106.553 66.637 107.331 66.7673 108.117 66.7953C108.748 66.8188 109.414 66.7835 109.968 67.0448C110.399 67.2488 110.7 67.6068 111.036 67.9165C111.995 68.7753 113.219 69.2991 114.515 69.406C114.683 69.4255 114.852 69.4191 115.018 69.387C113.789 69.2483 112.636 68.7336 111.724 67.9165Z" fill="black"/>
</g>
<path opacity="0.1" d="M88.428 63.4904C88.428 63.4904 87.2268 64.5676 87.4024 65.0078C87.5781 65.4481 88.428 63.4904 88.428 63.4904Z" fill="black"/>
<path d="M89.542 77.3367C88.6757 77.1297 86.2868 76.939 85.1501 80.6651C84.8855 81.5305 84.5485 82.3733 84.1426 83.1848C83.0525 85.3729 81.6441 89.8724 87.8378 90.863L102.703 94.165C102.703 94.165 110.661 95.1189 111.186 94.752C111.712 94.3851 111.637 93.578 111.637 93.578C111.637 93.578 102.853 93.578 101.126 90.9364C99.3994 88.2948 99.3243 84.6993 99.3243 84.6993C99.3243 84.6993 99.5405 79.1476 90.4655 77.5348C90.1652 77.479 89.8498 77.41 89.542 77.3367Z" fill="#474157"/>
<path opacity="0.1" d="M89.542 77.3616C88.6757 77.1547 86.2868 76.9639 85.1501 80.6915C84.8855 81.557 84.5485 82.3997 84.1426 83.2112C83.0525 85.3979 81.6441 89.8974 87.8378 90.888L102.703 94.1899C102.703 94.1899 110.661 95.1439 111.186 94.777C111.712 94.4101 111.637 93.6029 111.637 93.6029C111.637 93.6029 102.853 93.6029 101.126 90.9613C99.3994 88.3198 99.3243 84.7243 99.3243 84.7243C99.3243 84.7243 99.5405 79.1726 90.4655 77.5597C90.1652 77.504 89.8498 77.432 89.542 77.3616Z" fill="black"/>
<path d="M120.703 73.5401C120.617 73.0031 120.334 72.5148 119.907 72.166C119.481 71.8173 118.939 71.6318 118.383 71.6441C116.245 71.6822 109.664 71.9611 106.607 73.9129C106.607 73.9129 104.279 75.3804 103.604 75.3804C102.928 75.3804 93.7688 83.0117 107.357 89.8358C107.357 89.8358 114.64 91.861 117.492 87.1061C117.492 87.1061 119.52 81.9991 119.369 80.2307C119.219 78.4623 120.721 73.6928 120.721 73.6928C120.721 73.6928 120.718 73.6355 120.703 73.5401Z" fill="#474157"/>
<path opacity="0.1" d="M120.703 74.8257C120.532 73.7984 119.532 73.0558 118.383 73.0749C116.245 73.1101 109.664 73.3684 106.607 75.1691C106.607 75.1691 104.279 76.5236 103.604 76.5236C102.928 76.5236 93.7688 83.5679 107.357 89.868C107.357 89.868 114.64 91.7377 117.492 87.3483C117.492 87.3483 119.52 82.633 119.369 81.0011C119.219 79.3692 120.721 74.9666 120.721 74.9666C120.721 74.9666 120.718 74.9137 120.703 74.8257Z" fill="black"/>
<path d="M113.438 89.8343H111.036V94.8342H113.438V89.8343Z" fill="#5F5D7E"/>
<path opacity="0.1" d="M25.5616 69.5029C29.2966 69.5029 32.3244 69.313 32.3244 69.0788C32.3244 68.8446 29.2966 68.6547 25.5616 68.6547C21.8266 68.6547 18.7988 68.8446 18.7988 69.0788C18.7988 69.313 21.8266 69.5029 25.5616 69.5029Z" fill="black"/>
<path d="M31.2372 52.7216C31.0932 52.9145 30.9779 53.1265 30.8949 53.3511C30.8739 53.4069 30.8529 53.4685 30.8318 53.5287C30.794 53.5111 30.7542 53.4979 30.7132 53.4891C30.5381 53.4462 30.3572 53.4309 30.1772 53.4436C30.1772 53.3761 30.1862 53.2968 30.1877 53.2293C30.2102 52.4559 30.1171 51.3773 29.3619 51.8337C28.6381 52.2739 29.1547 53.0077 29.6216 53.4788L29.7417 53.5933C29.3153 53.8868 29.2342 54.5809 29.1637 55.3015C29.0931 56.0221 28.467 56.8116 28.0511 57.2592C28.009 57.3047 27.9715 57.3458 27.9339 57.384C27.766 57.2525 27.5714 57.1574 27.363 57.105C27.1546 57.0527 26.9372 57.0442 26.7252 57.0802C26.7087 57.0171 26.6892 56.951 26.6697 56.8806C26.3333 55.6948 25.6351 53.6388 24.7447 53.1882L24.8619 53.0415C25.2402 52.5572 25.6667 51.8396 25.0375 51.6546C24.4084 51.4697 24.3513 52.2784 24.3859 52.883C24.3859 52.9593 24.3979 53.0297 24.4039 53.0972C24.2782 53.1032 24.1551 53.1341 24.042 53.1881C23.9289 53.2421 23.8283 53.318 23.7462 53.4113L23.6486 53.2998C23.1381 52.7127 22.2027 51.7779 21.9189 52.4838C21.6547 53.1413 22.479 53.9939 23.0586 54.4885L23.0946 54.5193C22.7057 56.0646 24.3994 57.3267 25.3183 57.8726L25.4369 57.9431C24.1757 59.396 23.3964 62.1183 23.3964 62.1183L26.9279 62.7346C26.9279 62.7346 29.2703 60.7608 28.97 58.9058H28.994C31.3348 58.4479 31.8664 56.0089 31.5015 54.5604L31.5435 54.5442C31.9697 54.3733 32.3432 54.0972 32.6276 53.743C33.2823 52.8522 31.9069 51.8484 31.2372 52.7216Z" fill="#EA2027"/>
<path opacity="0.1" d="M31.2372 52.7216C31.0932 52.9145 30.9779 53.1265 30.8949 53.3511C30.8739 53.4069 30.8529 53.4685 30.8318 53.5287C30.794 53.5111 30.7542 53.4979 30.7132 53.4891C30.5381 53.4462 30.3572 53.4309 30.1772 53.4436C30.1772 53.3761 30.1862 53.2968 30.1877 53.2293C30.2102 52.4559 30.1171 51.3773 29.3619 51.8337C28.6381 52.2739 29.1547 53.0077 29.6216 53.4788L29.7417 53.5933C29.3153 53.8868 29.2342 54.5809 29.1637 55.3015C29.0931 56.0221 28.467 56.8116 28.0511 57.2592C28.009 57.3047 27.9715 57.3458 27.9339 57.384C27.766 57.2525 27.5714 57.1574 27.363 57.105C27.1546 57.0527 26.9372 57.0442 26.7252 57.0802C26.7087 57.0171 26.6892 56.951 26.6697 56.8806C26.3333 55.6948 25.6351 53.6388 24.7447 53.1882L24.8619 53.0415C25.2402 52.5572 25.6667 51.8396 25.0375 51.6546C24.4084 51.4697 24.3513 52.2784 24.3859 52.883C24.3859 52.9593 24.3979 53.0297 24.4039 53.0972C24.2782 53.1032 24.1551 53.1341 24.042 53.1881C23.9289 53.2421 23.8283 53.318 23.7462 53.4113L23.6486 53.2998C23.1381 52.7127 22.2027 51.7779 21.9189 52.4838C21.6547 53.1413 22.479 53.9939 23.0586 54.4885L23.0946 54.5193C22.7057 56.0646 24.3994 57.3267 25.3183 57.8726L25.4369 57.9431C24.1757 59.396 23.3964 62.1183 23.3964 62.1183L26.9279 62.7346C26.9279 62.7346 29.2703 60.7608 28.97 58.9058H28.994C31.3348 58.4479 31.8664 56.0089 31.5015 54.5604L31.5435 54.5442C31.9697 54.3733 32.3432 54.0972 32.6276 53.743C33.2823 52.8522 31.9069 51.8484 31.2372 52.7216Z" fill="black"/>
<path d="M24.2072 53.7165L23.7988 54.8979C23.7988 54.8979 23.569 54.7394 23.2793 54.4899C22.6997 53.9954 21.8754 53.1427 22.1396 52.4853C22.4234 51.7794 23.3588 52.7113 23.8693 53.3012C24.0706 53.5346 24.2072 53.7165 24.2072 53.7165Z" fill="#EA2027"/>
<path d="M25.0781 53.0429C24.9524 53.2039 24.8181 53.3582 24.6757 53.5052C24.6405 53.2996 24.6159 53.0924 24.6021 52.8844C24.5676 52.2798 24.6336 51.4771 25.2538 51.6561C25.8739 51.8351 25.4505 52.5586 25.0781 53.0429Z" fill="#EA2027"/>
<path d="M30.4054 53.2293C30.3934 53.6182 30.3543 53.9279 30.3543 53.9279C30.1725 53.7897 30.0004 53.6397 29.8393 53.4788C29.3724 53.0048 28.8558 52.2739 29.5796 51.8337C30.3333 51.3773 30.4264 52.4559 30.4054 53.2293Z" fill="#EA2027"/>
<path d="M32.8439 53.7386C32.5585 54.0926 32.1839 54.3682 31.7568 54.5384C31.6386 54.5884 31.5172 54.6311 31.3934 54.666L30.9069 53.9983C30.9584 53.7778 31.0257 53.561 31.1081 53.3497C31.1911 53.125 31.3064 52.913 31.4505 52.7201C32.1261 51.8484 33.4985 52.8522 32.8439 53.7386Z" fill="#EA2027"/>
<path opacity="0.1" d="M23.8649 53.3012C24.0706 53.5346 24.2072 53.7165 24.2072 53.7165L23.7988 54.8979C23.7988 54.8979 23.5691 54.7394 23.2793 54.4899C23.344 54.1117 23.504 53.7551 23.7448 53.4524C23.7808 53.3981 23.8243 53.3467 23.8649 53.3012Z" fill="black"/>
<path opacity="0.1" d="M25.0781 53.0429C24.9524 53.2039 24.8181 53.3582 24.6757 53.5052C24.6405 53.2996 24.6159 53.0924 24.6021 52.8844C24.7738 52.8872 24.9403 52.9427 25.0781 53.0429Z" fill="black"/>
<path d="M27.1021 57.7332L26.075 58.1735C26.075 58.1735 25.8513 58.0678 25.5285 57.8712C24.4489 57.221 22.2792 55.5877 23.7342 53.6622C25.1892 51.7368 26.4024 55.1914 26.8798 56.8791C27.0315 57.3854 27.1021 57.7332 27.1021 57.7332Z" fill="#EA2027"/>
<path opacity="0.1" d="M29.8378 53.4788C29.9868 53.3277 30.1894 53.2384 30.4039 53.2293C30.3919 53.6182 30.3528 53.9279 30.3528 53.9279C30.171 53.7897 29.9989 53.6397 29.8378 53.4788Z" fill="black"/>
<path opacity="0.1" d="M31.7568 54.5384C31.6385 54.5884 31.5172 54.6311 31.3934 54.666L30.9069 53.9983C30.9584 53.7778 31.0257 53.561 31.1081 53.3497C31.4249 53.5316 31.6562 53.9763 31.7568 54.5384Z" fill="black"/>
<path d="M29.2042 58.9014L29.0316 58.9307C25.5886 59.4429 27.8964 57.6275 27.8964 57.6275C27.8964 57.6275 28.0466 57.4881 28.2613 57.2592C28.6772 56.8116 29.3018 56.0265 29.3739 55.3015C29.482 54.2111 29.6066 53.1882 30.9235 53.4891C32.2223 53.784 32.47 58.263 29.2042 58.9014Z" fill="#EA2027"/>
<path d="M29.1456 67.2781H22.5676V68.9687H29.1456V67.2781Z" fill="#474157"/>
<path d="M30.1171 61.7836H21.5225V67.6832H30.1171V61.7836Z" fill="#474157"/>
<path opacity="0.1" d="M29.0826 67.2781H22.5045V68.9687H29.0826V67.2781Z" fill="black"/>
<path opacity="0.1" d="M30.0901 61.7851H21.4955V67.6846H30.0901V61.7851Z" fill="black"/>
<path d="M29.5781 67.2781H23V68.9687H29.5781V67.2781Z" fill="#474157"/>
<path opacity="0.1" d="M26.8859 56.8864C27.036 57.3913 27.1081 57.7391 27.1081 57.7391L26.0811 58.1793C26.0811 58.1793 25.8574 58.0737 25.5345 57.877C25.9369 57.3737 26.3904 56.9965 26.8859 56.8864Z" fill="black"/>
<path opacity="0.1" d="M29.2042 58.9014L29.0316 58.9307C25.5886 59.4429 27.8964 57.6275 27.8964 57.6275C27.8964 57.6275 28.0466 57.4881 28.2613 57.2592C28.9039 57.767 29.1757 58.329 29.2042 58.9014Z" fill="black"/>
<path d="M23.6126 62.1182C23.6126 62.1182 25.5405 55.3675 28.2447 57.4514C30.9489 59.5354 27.1441 62.7346 27.1441 62.7346L23.6126 62.1182Z" fill="#EA2027"/>
<path opacity="0.1" d="M24.5856 54.9317C24.705 54.9317 24.8018 54.837 24.8018 54.7203C24.8018 54.6036 24.705 54.509 24.5856 54.509C24.4662 54.509 24.3694 54.6036 24.3694 54.7203C24.3694 54.837 24.4662 54.9317 24.5856 54.9317Z" fill="black"/>
<path opacity="0.1" d="M24.5676 55.9193C24.687 55.9193 24.7838 55.8247 24.7838 55.708C24.7838 55.5913 24.687 55.4967 24.5676 55.4967C24.4482 55.4967 24.3514 55.5913 24.3514 55.708C24.3514 55.8247 24.4482 55.9193 24.5676 55.9193Z" fill="black"/>
<path opacity="0.1" d="M30.8393 55.1254C30.9587 55.1254 31.0555 55.0308 31.0555 54.9141C31.0555 54.7973 30.9587 54.7027 30.8393 54.7027C30.7199 54.7027 30.6231 54.7973 30.6231 54.9141C30.6231 55.0308 30.7199 55.1254 30.8393 55.1254Z" fill="black"/>
<path opacity="0.1" d="M25.7928 60.1811C25.9122 60.1811 26.009 60.0865 26.009 59.9697C26.009 59.853 25.9122 59.7584 25.7928 59.7584C25.6733 59.7584 25.5765 59.853 25.5765 59.9697C25.5765 60.0865 25.6733 60.1811 25.7928 60.1811Z" fill="black"/>
<path opacity="0.1" d="M30.3889 56.7646C30.5083 56.7646 30.6051 56.67 30.6051 56.5533C30.6051 56.4366 30.5083 56.342 30.3889 56.342C30.2695 56.342 30.1727 56.4366 30.1727 56.5533C30.1727 56.67 30.2695 56.7646 30.3889 56.7646Z" fill="black"/>
<path opacity="0.1" d="M28.1546 58.9483C28.274 58.9483 28.3708 58.8537 28.3708 58.737C28.3708 58.6203 28.274 58.5257 28.1546 58.5257C28.0352 58.5257 27.9384 58.6203 27.9384 58.737C27.9384 58.8537 28.0352 58.9483 28.1546 58.9483Z" fill="black"/>
<path opacity="0.1" d="M25.3243 55.3543C25.4437 55.3543 25.5405 55.2597 25.5405 55.143C25.5405 55.0263 25.4437 54.9317 25.3243 54.9317C25.2049 54.9317 25.1081 55.0263 25.1081 55.143C25.1081 55.2597 25.2049 55.3543 25.3243 55.3543Z" fill="black"/>
<path opacity="0.1" d="M30.2447 55.7608C30.3641 55.7608 30.4609 55.6662 30.4609 55.5495C30.4609 55.4328 30.3641 55.3382 30.2447 55.3382C30.1253 55.3382 30.0285 55.4328 30.0285 55.5495C30.0285 55.6662 30.1253 55.7608 30.2447 55.7608Z" fill="black"/>
<path opacity="0.1" d="M29.506 57.3986C29.6254 57.3986 29.7222 57.304 29.7222 57.1873C29.7222 57.0706 29.6254 56.976 29.506 56.976C29.3866 56.976 29.2898 57.0706 29.2898 57.1873C29.2898 57.304 29.3866 57.3986 29.506 57.3986Z" fill="black"/>
<path opacity="0.1" d="M27.2342 60.0226C27.3536 60.0226 27.4504 59.928 27.4504 59.8112C27.4504 59.6945 27.3536 59.5999 27.2342 59.5999C27.1148 59.5999 27.018 59.6945 27.018 59.8112C27.018 59.928 27.1148 60.0226 27.2342 60.0226Z" fill="black"/>
<path opacity="0.1" d="M26.7658 58.9836C26.8852 58.9836 26.982 58.8889 26.982 58.7722C26.982 58.6555 26.8852 58.5609 26.7658 58.5609C26.6464 58.5609 26.5496 58.6555 26.5496 58.7722C26.5496 58.8889 26.6464 58.9836 26.7658 58.9836Z" fill="black"/>
<path opacity="0.1" d="M25.6487 56.6414C25.7681 56.6414 25.8649 56.5467 25.8649 56.43C25.8649 56.3133 25.7681 56.2187 25.6487 56.2187C25.5292 56.2187 25.4324 56.3133 25.4324 56.43C25.4324 56.5467 25.5292 56.6414 25.6487 56.6414Z" fill="black"/>
<path opacity="0.1" d="M29.5781 67.2781H23V67.896H29.5781V67.2781Z" fill="black"/>
<path d="M30.5496 61.7836H21.955V67.6832H30.5496V61.7836Z" fill="#474157"/>
<path opacity="0.1" d="M27.5226 60.9736C27.642 60.9736 27.7388 60.879 27.7388 60.7622C27.7388 60.6455 27.642 60.5509 27.5226 60.5509C27.4031 60.5509 27.3063 60.6455 27.3063 60.7622C27.3063 60.879 27.4031 60.9736 27.5226 60.9736Z" fill="black"/>
<path opacity="0.1" d="M26.2252 61.2377C26.3447 61.2377 26.4415 61.1431 26.4415 61.0264C26.4415 60.9097 26.3447 60.815 26.2252 60.815C26.1058 60.815 26.009 60.9097 26.009 61.0264C26.009 61.1431 26.1058 61.2377 26.2252 61.2377Z" fill="black"/>
<path d="M46.8303 84.3295C46.8303 84.3295 47.9009 85.6987 46.3363 87.765C44.7717 89.8313 43.4834 91.5807 44 92.8662C44 92.8662 46.3633 89.0271 48.2868 88.9743C50.2102 88.9215 48.9459 86.6394 46.8303 84.3295Z" fill="#EA2027"/>
<path opacity="0.1" d="M46.8303 84.3295C46.9239 84.4614 46.9977 84.6057 47.0495 84.758C48.9249 86.9124 49.9249 88.9229 48.1216 88.9743C46.4414 89.0257 44.4264 91.9607 43.9429 92.6945C43.9594 92.7518 43.979 92.809 44 92.8633C44 92.8633 46.3634 89.0242 48.2868 88.9714C50.2102 88.9185 48.9459 86.6394 46.8303 84.3295Z" fill="black"/>
<path d="M48.8213 86.0759C48.8213 86.5573 48.7658 86.9476 48.6982 86.9476C48.6306 86.9476 48.5751 86.5573 48.5751 86.0759C48.5751 85.5945 48.6441 85.8205 48.7117 85.8205C48.7793 85.8205 48.8213 85.5931 48.8213 86.0759Z" fill="#FFD037"/>
<path d="M49.5045 86.6512C49.0721 86.8816 48.6952 87.021 48.6622 86.9623C48.6291 86.9036 48.9535 86.6688 49.3874 86.4384C49.8213 86.208 49.6487 86.3753 49.6877 86.4384C49.7267 86.5015 49.9384 86.4208 49.5045 86.6512Z" fill="#FFD037"/>
<path d="M41.1712 84.3295C41.1712 84.3295 40.1006 85.6987 41.6652 87.765C43.2297 89.8313 44.518 91.5807 44 92.8662C44 92.8662 41.6382 89.0271 39.7147 88.9743C37.7913 88.9215 39.0556 86.6394 41.1712 84.3295Z" fill="#EA2027"/>
<path opacity="0.1" d="M41.1712 84.3295C41.0776 84.4614 41.0038 84.6057 40.952 84.758C39.0766 86.9124 38.0766 88.9229 39.8799 88.9743C41.5601 89.0257 43.5751 91.9607 44.0586 92.6945C44.0422 92.7518 44.0227 92.8081 44 92.8633C44 92.8633 41.6382 89.0257 39.7147 88.9758C37.7913 88.9259 39.0556 86.6394 41.1712 84.3295Z" fill="black"/>
<path d="M39.1802 86.0759C39.1802 86.5573 39.2357 86.9476 39.3033 86.9476C39.3709 86.9476 39.4264 86.5573 39.4264 86.0759C39.4264 85.5945 39.3574 85.8205 39.2898 85.8205C39.2222 85.8205 39.1802 85.5931 39.1802 86.0759Z" fill="#FFD037"/>
<path d="M38.497 86.6512C38.9295 86.8816 39.3063 87.021 39.3394 86.9623C39.3724 86.9036 39.0481 86.6688 38.6141 86.4384C38.1802 86.208 38.3529 86.3753 38.3138 86.4384C38.2748 86.5015 38.0631 86.4208 38.497 86.6512Z" fill="#FFD037"/>
<path opacity="0.1" d="M44 103.343C50.1863 103.343 55.2012 102.591 55.2012 101.663C55.2012 100.735 50.1863 99.9823 44 99.9823C37.8138 99.9823 32.7988 100.735 32.7988 101.663C32.7988 102.591 37.8138 103.343 44 103.343Z" fill="#EA2027"/>
<path d="M49.7658 91.023L49.7117 91.4501L49.6366 92.0547L49.6066 92.3056L49.53 92.9103L49.4985 93.1627L49.4234 93.7658L48.5736 100.634C48.497 101.247 47.4715 101.724 46.2357 101.724H41.7733C40.536 101.724 39.521 101.247 39.4369 100.634L38.5781 93.7658L38.503 93.1627L38.4715 92.9103L38.3949 92.3056L38.3649 92.0547L38.2898 91.4501L38.2357 91.023C38.1922 90.6767 38.7463 90.3831 39.4475 90.3831H48.5556C49.2538 90.3831 49.8093 90.6767 49.7658 91.023Z" fill="#65617D"/>
<path d="M49.7117 91.45L49.6366 92.0532H38.3649L38.2898 91.45H49.7117Z" fill="#9D9CB5"/>
<path d="M49.6066 92.3056L49.5315 92.9102H38.4715L38.3949 92.3056H49.6066Z" fill="#9D9CB5"/>
<path d="M49.4985 93.1612L49.4234 93.7658H38.5781L38.503 93.1612H49.4985Z" fill="#9D9CB5"/>
<defs>
<linearGradient id="paint0_linear" x1="101.827" y1="116.52" x2="101.827" y2="40.7816" gradientUnits="userSpaceOnUse">
<stop stop-color="#808080" stop-opacity="0.25"/>
<stop offset="0.54" stop-color="#808080" stop-opacity="0.12"/>
<stop offset="1" stop-color="#808080" stop-opacity="0.1"/>
</linearGradient>
</defs>
</svg>
