<svg width="189" height="115" viewBox="0 0 189 115" fill="none" xmlns="http://www.w3.org/2000/svg">
<g clip-path="url(#clip0)">
<path d="M189 115C179.261 113.794 169.896 112.754 160.903 111.88L164.459 107.014C163.26 106.714 157.993 109.488 157.993 109.488L162.661 95.3396C156.631 95.8309 153.563 110.284 153.563 110.284L146.828 105.367L150.088 110.878C122.565 108.476 98.7947 107.532 78.801 107.423L81.8446 103.258C80.6458 102.958 75.3785 105.732 75.3785 105.732L80.0465 91.5836C74.0172 92.0749 70.9493 106.528 70.9493 106.528L64.214 101.611L67.6671 107.448C50.9056 107.62 37.2367 108.377 26.6863 109.259C29.7652 102.764 40.2213 96.6157 40.2213 96.6157C32.2365 98.2659 28.0477 101.067 25.8588 103.685C25.6915 95.65 26.8171 80.7576 35.1799 64.2979C35.1799 64.2979 18.6719 89.6621 20.7748 106.739L21.0261 109.771C7.0345 111.135 0 112.583 0 112.583L189 115Z" fill="#3F3D56"/>
<path d="M100.498 4.60611V107.101C100.496 108.322 99.9221 109.493 98.9009 110.356C97.8798 111.219 96.4953 111.704 95.0517 111.704H45.8522C45.1369 111.705 44.4285 111.587 43.7674 111.356C43.1063 111.125 42.5055 110.786 41.9996 110.358C41.4937 109.931 41.0925 109.423 40.819 108.864C40.5455 108.305 40.4052 107.706 40.4059 107.101V4.60611C40.4059 4.00121 40.5467 3.40223 40.8204 2.84337C41.094 2.2845 41.4952 1.77671 42.001 1.34898C42.5067 0.921254 43.1071 0.581973 43.7679 0.350512C44.4287 0.119052 45.1369 -5.21196e-05 45.8522 2.16102e-07H53.2148V0.798518C53.2147 1.80434 53.6869 2.76903 54.5277 3.48041C55.3685 4.19178 56.5089 4.59158 57.6982 4.59188H82.7214C83.6787 4.59361 84.6111 4.33408 85.38 3.85186C85.5355 3.75624 85.6829 3.65163 85.8213 3.53878C86.2593 3.18507 86.6078 2.75979 86.8456 2.28874C87.0834 1.8177 87.2056 1.31071 87.2048 0.798518V2.16102e-07H95.0517C95.7669 -0.000185108 96.4753 0.118829 97.1361 0.350242C97.797 0.581655 98.3975 0.920931 98.9032 1.34868C99.409 1.77644 99.8102 2.28429 100.084 2.84321C100.357 3.40213 100.498 4.00117 100.498 4.60611Z" fill="#3F3D56"/>
<path d="M54.1122 18.1841C54.835 18.1841 55.421 17.6885 55.421 17.0772C55.421 16.4659 54.835 15.9704 54.1122 15.9704C53.3894 15.9704 52.8035 16.4659 52.8035 17.0772C52.8035 17.6885 53.3894 18.1841 54.1122 18.1841Z" fill="#F2F2F2"/>
<path d="M85.8213 3.53879C85.6829 3.65163 85.5355 3.75624 85.38 3.85187C86.9829 6.23743 89.1544 8.31528 91.7569 9.95364C94.3593 11.592 97.3359 12.7551 100.498 13.3693V12.8759C97.4213 12.2621 94.5286 11.1154 92.0024 9.50834C89.4763 7.90123 87.3716 5.8686 85.8213 3.53879Z" fill="#EA2027"/>
<path d="M74.639 4.59186H74.0257C76.2027 9.27007 79.7934 13.3831 84.4388 16.52C89.0842 19.6569 94.6217 21.7078 100.498 22.4676V21.9774C94.7747 21.2257 89.3812 19.2276 84.8474 16.1795C80.3137 13.1313 76.7956 9.13796 74.639 4.59186Z" fill="#EA2027"/>
<path d="M63.3426 4.59186H62.7518C67.6933 19.098 82.6036 29.8962 100.498 31.6498V31.1675C82.914 29.4219 68.2598 18.8292 63.3426 4.59186Z" fill="#EA2027"/>
<path d="M49.812 25.2715H49.4713V24.9834H49.405V25.2715H49.0641V25.3278H49.405V25.6159H49.4713V25.3278H49.812V25.2715Z" fill="#F2F2F2"/>
<path d="M72.8085 10.8823H72.4679V10.5942H72.4015V10.8823H72.0607V10.9386H72.4015V11.2267H72.4679V10.9386H72.8085V10.8823Z" fill="#F2F2F2"/>
<path d="M53.1773 36.6563H52.8367V36.3682H52.7703V36.6563H52.4295V36.7126H52.7703V37.0007H52.8367V36.7126H53.1773V36.6563Z" fill="#F2F2F2"/>
<path d="M68.8823 28.2758H68.5416V27.9877H68.4752V28.2758H68.1344V28.3321H68.4752V28.6202H68.5416V28.3321H68.8823V28.2758Z" fill="#F2F2F2"/>
<path d="M91.3179 33.4938H90.9773V33.2057H90.9109V33.4938H90.5701V33.5501H90.9109V33.8382H90.9773V33.5501H91.3179V33.4938Z" fill="#F2F2F2"/>
<path d="M87.3918 20.3978C87.8048 20.3978 88.1396 20.1146 88.1396 19.7653C88.1396 19.416 87.8048 19.1328 87.3918 19.1328C86.9787 19.1328 86.6439 19.416 86.6439 19.7653C86.6439 20.1146 86.9787 20.3978 87.3918 20.3978Z" fill="#FF6584"/>
<path d="M60.5999 34.5972L60.1755 34.6525C60.3082 35.3704 60.4129 36.1041 60.4896 36.8299L60.9177 36.7983C60.8411 36.063 60.7345 35.323 60.5999 34.5972Z" fill="#E6E6E6"/>
<path d="M59.4388 30.2741L59.0275 30.3801C59.2762 31.0758 59.4986 31.789 59.6875 32.4989L60.1081 32.4183C59.9156 31.7004 59.6894 30.9794 59.4388 30.2741Z" fill="#E6E6E6"/>
<path d="M57.586 26.1282L57.1953 26.28C57.5542 26.9425 57.8908 27.6224 58.1955 28.3024L58.5975 28.1743C58.289 27.4864 57.9506 26.797 57.586 26.1282Z" fill="#E6E6E6"/>
<path d="M55.0807 22.2415L54.718 22.436C55.1798 23.0495 55.6229 23.6852 56.0342 24.3224L56.4119 24.1485C55.9968 23.5033 55.5481 22.8614 55.0807 22.2415Z" fill="#E6E6E6"/>
<path d="M51.9659 18.679L51.6387 18.9146C52.1959 19.468 52.738 20.0468 53.2503 20.6318L53.5943 20.4152C53.0783 19.8238 52.5305 19.2388 51.9659 18.679Z" fill="#E6E6E6"/>
<path d="M48.3051 15.5071L48.0191 15.7775C48.6622 16.2629 49.2923 16.7736 49.8925 17.2939L50.2009 17.0393C49.5933 16.5127 48.9558 15.9972 48.3051 15.5071Z" fill="#E6E6E6"/>
<path d="M44.1695 12.7842L43.9283 13.0846C44.6425 13.491 45.3493 13.9243 46.0279 14.3718L46.2934 14.0855C45.6054 13.6333 44.8912 13.1953 44.1695 12.7842Z" fill="#E6E6E6"/>
<path d="M40.4059 10.8931V11.3042C40.8528 11.5018 41.2959 11.709 41.7296 11.9209L41.9446 11.6062C41.4398 11.3595 40.9269 11.1218 40.4059 10.8931Z" fill="#E6E6E6"/>
<path d="M60.5027 68.7522C60.5724 68.3986 60.6362 68.0375 60.6924 67.6792L61.1186 67.727C61.0617 68.0894 60.9972 68.4543 60.9268 68.8119L60.5027 68.7522Z" fill="#E6E6E6"/>
<path d="M59.3044 73.0182L59.7153 73.1264C59.973 72.4237 60.2063 71.7039 60.4084 70.9868L59.9898 70.903C59.7895 71.6124 59.5603 72.3232 59.3044 73.0182Z" fill="#E6E6E6"/>
<path d="M57.4271 77.1027L57.8171 77.2574C58.188 76.592 58.5351 75.9064 58.85 75.2201L58.4488 75.0877C58.1377 75.7666 57.7942 76.4448 57.4271 77.1027Z" fill="#E6E6E6"/>
<path d="M54.9009 80.9346L55.2614 81.1325C55.7369 80.516 56.1931 79.8767 56.6177 79.2336L56.2428 79.0557C55.8237 79.6917 55.3712 80.3236 54.9009 80.9346Z" fill="#E6E6E6"/>
<path d="M51.7755 84.4352L52.1013 84.674C52.6733 84.1161 53.2278 83.5357 53.7534 82.9488L53.4091 82.7311C52.8909 83.3112 52.342 83.8844 51.7755 84.4352Z" fill="#E6E6E6"/>
<path d="M48.1157 87.5416L48.3988 87.8149C49.0562 87.3298 49.6991 86.8181 50.3134 86.2982L50.0093 86.0406C49.402 86.5553 48.7647 87.0599 48.1157 87.5416Z" fill="#E6E6E6"/>
<path d="M43.9926 90.1965L44.2301 90.5007C44.956 90.0953 45.6769 89.6632 46.3686 89.218L46.1087 88.9277C45.4236 89.3692 44.7115 89.7964 43.9926 90.1965Z" fill="#E6E6E6"/>
<path d="M41.9932 91.6557C41.4735 91.904 40.9425 92.1443 40.4059 92.372V91.9641C40.8696 91.7648 41.3295 91.5545 41.7801 91.3411L41.9932 91.6557Z" fill="#E6E6E6"/>
<path d="M60.6288 39.073L61.0586 39.0664C61.0665 39.4334 61.0671 39.8024 61.0604 40.1631L60.6306 40.1575C60.6372 39.8008 60.6366 39.4359 60.6288 39.073Z" fill="#E6E6E6"/>
<path d="M42.2943 47.6948H86.27C89.5426 47.6948 92.6813 48.7943 94.9954 50.7514C97.3095 52.7086 98.6096 55.3631 98.6096 58.1309V59.5123H54.6338C51.3612 59.5123 48.2226 58.4128 45.9084 56.4556C43.5943 54.4985 42.2943 51.844 42.2943 49.0762V47.6948Z" fill="white"/>
<path d="M71.4792 111.559C71.4363 111.5 70.4246 110.071 70.0739 107.104C69.7522 104.382 69.959 99.7948 72.7723 93.3953C78.1018 81.2719 71.544 71.4901 71.477 71.3926L71.8006 71.2339C71.8175 71.2586 73.5097 73.7526 74.5093 77.7238C75.8302 82.9889 75.3492 88.4634 73.1228 93.5055C67.8024 105.608 71.7578 111.338 71.7984 111.394L71.4792 111.559Z" fill="#F2F2F2"/>
<path d="M69.3952 70.6808C70.7376 70.6808 71.8258 69.7605 71.8258 68.6252C71.8258 67.4899 70.7376 66.5696 69.3952 66.5696C68.0529 66.5696 66.9647 67.4899 66.9647 68.6252C66.9647 69.7605 68.0529 70.6808 69.3952 70.6808Z" fill="#EA2027"/>
<path d="M77.0607 78.2707C78.4031 78.2707 79.4913 77.3503 79.4913 76.2151C79.4913 75.0798 78.4031 74.1595 77.0607 74.1595C75.7184 74.1595 74.6302 75.0798 74.6302 76.2151C74.6302 77.3503 75.7184 78.2707 77.0607 78.2707Z" fill="#F2F2F2"/>
<path d="M71.8258 83.3306C73.1681 83.3306 74.2563 82.4103 74.2563 81.275C74.2563 80.1397 73.1681 79.2194 71.8258 79.2194C70.4834 79.2194 69.3953 80.1397 69.3953 81.275C69.3953 82.4103 70.4834 83.3306 71.8258 83.3306Z" fill="#EA2027"/>
<path d="M78.1825 87.5999C79.5249 87.5999 80.6131 86.6796 80.6131 85.5443C80.6131 84.409 79.5249 83.4887 78.1825 83.4887C76.8402 83.4887 75.752 84.409 75.752 85.5443C75.752 86.6796 76.8402 87.5999 78.1825 87.5999Z" fill="#EA2027"/>
<path d="M69.9561 94.241C71.2985 94.241 72.3867 93.3207 72.3867 92.1854C72.3867 91.0502 71.2985 90.1299 69.9561 90.1299C68.6138 90.1299 67.5256 91.0502 67.5256 92.1854C67.5256 93.3207 68.6138 94.241 69.9561 94.241Z" fill="#F2F2F2"/>
<path d="M72.9476 111.634C72.9476 111.634 70.517 106.575 77.8086 102.78L72.9476 111.634Z" fill="#F2F2F2"/>
<path d="M69.9584 111.543C69.9584 111.543 68.8522 106.162 60.2908 106.208L69.9584 111.543Z" fill="#F2F2F2"/>
<path opacity="0.2" d="M60.282 66.2533C68.5426 66.2533 75.2391 60.5898 75.2391 53.6035C75.2391 46.6172 68.5426 40.9537 60.282 40.9537C52.0214 40.9537 45.3249 46.6172 45.3249 53.6035C45.3249 60.5898 52.0214 66.2533 60.282 66.2533Z" fill="#EA2027"/>
<path opacity="0.2" d="M60.282 62.5118C66.0993 62.5118 70.8152 58.5235 70.8152 53.6035C70.8152 48.6836 66.0993 44.6952 60.282 44.6952C54.4647 44.6952 49.7489 48.6836 49.7489 53.6035C49.7489 58.5235 54.4647 62.5118 60.282 62.5118Z" fill="#EA2027"/>
<path d="M60.282 59.483C64.1215 59.483 67.2339 56.8507 67.2339 53.6035C67.2339 50.3564 64.1215 47.7241 60.282 47.7241C56.4426 47.7241 53.3301 50.3564 53.3301 53.6035C53.3301 56.8507 56.4426 59.483 60.282 59.483Z" fill="#EA2027"/>
<path d="M61.546 52.3354C61.5461 52.155 61.4921 51.9775 61.3893 51.8195C61.2864 51.6614 61.1378 51.528 60.9576 51.4316C60.7773 51.3352 60.571 51.2789 60.3581 51.2681C60.1452 51.2572 59.9325 51.2921 59.7398 51.3695C59.5471 51.4469 59.3807 51.5642 59.2561 51.7107C59.1315 51.8571 59.0527 52.0278 59.0272 52.2069C59.0016 52.386 59.03 52.5677 59.1098 52.735C59.1896 52.9023 59.3182 53.0498 59.4835 53.1638L59.018 55.9197H61.546L61.0805 53.1638C61.2261 53.0637 61.3434 52.9374 61.4239 52.7941C61.5044 52.6508 61.5462 52.4941 61.546 52.3354Z" fill="white"/>
<path d="M130.147 8.42794C130.147 8.42794 125.977 5.2663 120.37 11.2248C114.762 17.1832 105.992 20.1017 103.979 22.4121C103.979 22.4121 112.318 19.4937 115.194 18.2777C118.069 17.0616 117.925 17.3048 117.925 17.3048C117.925 17.3048 114.043 19.6153 113.324 21.9257C112.605 24.2361 113.181 26.1818 111.887 28.4922C110.593 30.8026 136.617 30.073 136.617 30.073C136.617 30.073 139.205 26.3034 138.486 22.4121C137.767 18.5209 138.199 8.91435 130.147 8.42794Z" fill="#2F2E41"/>
<path d="M122.26 18.3742C122.26 18.3742 123.167 23.7419 119.281 24.9469C115.395 26.1519 116.82 27.7951 116.82 27.7951L122.649 30.2051L128.866 28.5619L130.938 25.9328C130.938 25.9328 127.571 25.2756 128.477 23.3037C129.384 21.3319 129.643 20.6746 129.643 20.6746L122.26 18.3742Z" fill="#FFB9B9"/>
<path opacity="0.1" d="M122.26 18.3742C122.26 18.3742 123.167 23.7419 119.281 24.9469C115.395 26.1519 116.82 27.7951 116.82 27.7951L122.649 30.2051L128.866 28.5619L130.938 25.9328C130.938 25.9328 127.571 25.2756 128.477 23.3037C129.384 21.3319 129.643 20.6746 129.643 20.6746L122.26 18.3742Z" fill="black"/>
<path d="M138.58 33.7106C138.58 33.7106 137.674 43.7888 137.933 44.227C138.192 44.6652 137.933 59.892 137.933 59.892C137.933 59.892 139.746 68.108 137.415 68.5462C135.083 68.9843 135.601 59.3443 135.601 59.3443L133.27 46.637L133.529 34.0392L138.58 33.7106Z" fill="#FFB9B9"/>
<path opacity="0.1" d="M138.58 33.7106C138.58 33.7106 137.674 43.7888 137.933 44.227C138.192 44.6652 137.933 59.892 137.933 59.892C137.933 59.892 139.746 68.108 137.415 68.5462C135.083 68.9843 135.601 59.3443 135.601 59.3443L133.27 46.637L133.529 34.0392L138.58 33.7106Z" fill="black"/>
<path d="M113.323 64.0548C113.323 64.0548 109.048 77.748 109.178 84.4303C109.307 91.1126 110.991 100.424 110.991 100.424C110.991 100.424 111.25 104.477 110.862 104.915C110.473 105.354 112.805 107.216 112.805 107.216L115.266 106.011L116.172 105.134V104.368C116.172 104.368 114.748 100.643 115.913 97.6854C117.079 94.7276 117.727 87.2785 116.561 84.9781L124.592 64.8216L113.323 64.0548Z" fill="#FFB9B9"/>
<path d="M113.064 105.463C113.064 105.463 111.509 103.82 110.473 104.368C109.437 104.915 107.753 108.64 107.753 108.64C107.753 108.64 101.924 113.35 106.069 113.57C110.214 113.789 112.028 112.584 112.546 111.707C113.064 110.831 117.856 108.53 117.856 108.53C117.856 108.53 117.338 104.368 116.561 104.258C115.784 104.149 114.618 105.901 114.618 105.901L113.064 105.463Z" fill="#2F2E41"/>
<path d="M127.441 64.9312V78.5148C127.456 80.1631 127.586 81.8091 127.83 83.4444C128.218 85.8544 125.628 103.82 125.628 103.82L125.887 106.997L129.125 106.778L129.514 104.039L134.177 91.989C134.177 91.989 135.731 84.6494 134.954 81.9108C134.177 79.1721 138.969 61.6448 138.969 61.6448L127.441 64.9312Z" fill="#FFB9B9"/>
<path d="M124.851 106.23L125.81 106.054C125.81 106.054 126.535 104.696 127.441 105.025C128.079 105.274 128.684 105.58 129.244 105.939L129.643 106.559C129.643 106.559 130.55 108.202 131.716 109.297C132.881 110.393 134.177 112.803 132.234 113.022C130.291 113.241 127.7 113.35 126.923 112.803C126.146 112.255 126.664 111.379 125.887 111.16C125.11 110.94 124.462 110.283 124.592 110.064C124.721 109.845 124.851 106.23 124.851 106.23Z" fill="#2F2E41"/>
<path d="M127.441 22.1473C130.621 22.1473 133.198 19.9676 133.198 17.2787C133.198 14.5899 130.621 12.4101 127.441 12.4101C124.262 12.4101 121.685 14.5899 121.685 17.2787C121.685 19.9676 124.262 22.1473 127.441 22.1473Z" fill="#FFB9B9"/>
<path d="M116.561 25.8233L118.272 25.3181C118.272 25.3181 117.597 26.2615 121.224 26.8092C124.851 27.3569 128.607 27.5508 130.291 25.7559C130.291 25.7559 130.938 25.4946 131.845 26.2615C132.752 27.0283 133.27 26.8092 133.27 26.8092L132.622 29.6574L131.327 34.9156L129.643 38.8592L124.851 37.9829L119.67 34.806L117.727 30.5338V26.5901L116.561 25.8233Z" fill="#EA2027"/>
<path d="M132.363 27.3569L133.658 26.5901C133.658 26.5901 138.062 27.2474 138.321 29.0001L134.954 34.4774C135.641 36.0015 135.594 37.6925 134.824 39.1879C133.529 41.7074 133.658 42.2552 133.658 42.2552L132.752 45.5415L116.302 46.637C116.302 46.637 115.654 45.3225 115.395 45.1034C115.136 44.8843 115.136 44.1175 115.395 44.1175C115.654 44.1175 115.395 43.7888 115.136 43.4602C114.877 43.1315 114.748 43.022 115.136 42.5838C115.525 42.1456 114.489 38.202 114.489 38.202V33.9297L110.085 29.0001C110.085 29.0001 111.639 27.0283 112.416 26.8092C113.193 26.5901 116.89 25.7261 116.89 25.7261L117.727 26.7678L118.892 34.6965L120.576 39.5165L127.666 38.4977L130.42 34.587L132.234 29.986L132.363 27.3569Z" fill="#EA2027"/>
<path d="M137.285 28.3428L138.321 29.0001C138.321 29.0001 139.228 35.1347 138.969 35.5729C138.71 36.011 134.177 36.4492 134.047 36.2301C133.918 36.0111 137.285 28.3428 137.285 28.3428Z" fill="#EA2027"/>
<path d="M115.913 25.2756L117.209 32.5056C117.209 32.5056 116.043 43.2411 116.302 45.432L116.561 46.0893C116.561 46.0893 116.043 45.8702 115.913 46.3084C115.784 46.7465 115.913 48.1706 115.913 48.1706C115.913 48.1706 115.136 48.8279 114.877 52.4429C114.618 56.0579 111.509 64.7121 112.675 65.0407C113.841 65.3693 120.835 67.0125 124.592 66.6839C128.348 66.3553 141.819 62.5212 141.689 61.5352C141.56 60.5493 135.083 46.637 135.083 46.637C135.083 46.637 133.918 44.9938 133.918 44.7747C133.918 44.5556 135.472 43.6793 135.083 42.8029C134.695 41.9265 132.622 32.7247 132.622 32.7247L134.047 26.1519L132.104 25.7137L130.679 32.0674C130.679 32.0674 125.11 34.3679 119.281 32.2865L117.986 24.8374L115.913 25.2756Z" fill="#2F2E41"/>
<path d="M122.145 13.7846C122.145 13.7846 131.73 19.3715 134.321 16.8519C136.911 14.3324 129.787 12.1414 129.787 12.1414L123.829 11.5937L122.145 13.7846Z" fill="#2F2E41"/>
<path d="M107.253 73.2173C108.239 73.8384 109.46 74.1339 110.685 74.0484C111.911 73.9629 113.058 73.5022 113.911 72.7528C114.764 72.0033 115.264 71.0165 115.318 69.9773C115.372 68.9382 114.976 67.918 114.205 67.108C113.433 66.298 112.339 65.7538 111.127 65.5775C109.915 65.4011 108.668 65.6047 107.621 66.15C106.573 66.6953 105.797 67.545 105.438 68.5397C105.078 69.5344 105.16 70.6059 105.667 71.5533L92.4478 80.8623L90.6876 79.0955L89.8968 79.5428L89.0167 78.6594L89.7399 78.1441L88.8598 77.2607L87.7349 78.0623L88.2765 78.606L87.0713 79.4648L86.5297 78.9212L84.762 80.1808L85.5744 80.9962L86.2172 80.5382L87.0973 81.4216L86.2938 81.9941L87.9186 83.625L85.9902 84.9992L87.9535 86.9698L107.253 73.2173ZM110.553 66.9728C111.212 67.0204 111.839 67.2321 112.356 67.5813C112.872 67.9304 113.255 68.4012 113.455 68.9342C113.655 69.4672 113.664 70.0384 113.48 70.5756C113.296 71.1128 112.929 71.5919 112.423 71.9522C111.917 72.3126 111.297 72.538 110.639 72.6C109.982 72.662 109.318 72.5578 108.731 72.3006C108.144 72.0434 107.66 71.6447 107.341 71.155C107.022 70.6652 106.881 70.1064 106.938 69.5493C107.013 68.8021 107.436 68.1109 108.115 67.6277C108.793 67.1445 109.67 66.9089 110.553 66.9727V66.9728Z" fill="#EA2027"/>
<path d="M109.178 35.0251C109.178 35.0251 110.085 45.1034 109.826 45.5415C109.567 45.9797 109.826 61.2066 109.826 61.2066C109.826 61.2066 108.012 69.4225 110.344 69.8607C112.675 70.2989 112.157 60.6589 112.157 60.6589L114.489 47.9516L114.23 35.3538L109.178 35.0251Z" fill="#FFB9B9"/>
<path d="M111.121 28.6715L110.085 29.0001C110.085 29.0001 108.142 35.9015 108.66 35.9015C109.178 35.9015 115.395 36.5588 115.395 36.3397C115.395 36.1206 114.229 30.7529 114.229 30.7529L111.121 28.6715Z" fill="#EA2027"/>
</g>
<defs>
<clipPath id="clip0">
<rect width="189" height="115" fill="white"/>
</clipPath>
</defs>
</svg>
