<svg width="333" height="475" viewBox="0 0 333 475" fill="none" xmlns="http://www.w3.org/2000/svg">
<g filter="url(#filter0_d)">
<path d="M175.738 173.886C167.37 156.124 153.426 141.584 136.031 132.479C118.636 123.374 98.7412 120.203 79.3773 123.45C60.0133 126.696 42.2409 136.182 28.7662 150.463C15.2915 164.743 6.85288 183.036 4.73537 202.556C2.61785 222.075 6.93746 241.752 17.0364 258.59C27.1353 275.428 42.4603 288.504 60.6776 295.827C78.8949 303.151 99.0064 304.32 117.95 299.157C136.893 293.994 153.63 282.782 165.612 267.228L137.509 245.579C130.247 255.006 120.103 261.801 108.621 264.931C97.14 268.06 84.9506 267.351 73.9093 262.913C62.868 258.474 53.5797 250.549 47.4588 240.343C41.3379 230.138 38.7199 218.212 40.0033 206.382C41.2867 194.551 46.4012 183.464 54.5681 174.808C62.735 166.153 73.5067 160.404 85.243 158.436C96.9793 156.469 109.037 158.39 119.58 163.909C130.123 169.427 138.574 178.24 143.646 189.005L175.738 173.886Z" fill="white"/>
</g>
<rect x="40" y="157" width="110" height="110" rx="55" fill="#E10D0D"/>
<path d="M83.5205 219.689C83.5205 217.863 82.876 216.467 81.5869 215.5C80.2979 214.512 77.9775 213.48 74.626 212.406C71.2744 211.311 68.6211 210.236 66.666 209.184C61.3379 206.305 58.6738 202.427 58.6738 197.55C58.6738 195.015 59.3828 192.759 60.8008 190.782C62.2402 188.784 64.292 187.227 66.9561 186.109C69.6416 184.992 72.6494 184.434 75.9795 184.434C79.3311 184.434 82.3174 185.046 84.9385 186.271C87.5596 187.474 89.5898 189.182 91.0293 191.395C92.4902 193.607 93.2207 196.121 93.2207 198.936H83.5527C83.5527 196.787 82.876 195.122 81.5225 193.94C80.1689 192.737 78.2676 192.136 75.8184 192.136C73.4551 192.136 71.6182 192.641 70.3076 193.65C68.9971 194.639 68.3418 195.949 68.3418 197.582C68.3418 199.107 69.1045 200.386 70.6299 201.417C72.1768 202.448 74.4434 203.415 77.4297 204.317C82.9297 205.972 86.9365 208.023 89.4502 210.473C91.9639 212.922 93.2207 215.973 93.2207 219.625C93.2207 223.686 91.6846 226.876 88.6123 229.196C85.54 231.495 81.4043 232.645 76.2051 232.645C72.5957 232.645 69.3086 231.989 66.3438 230.679C63.3789 229.347 61.1123 227.531 59.5439 225.232C57.9971 222.934 57.2236 220.27 57.2236 217.24H66.9238C66.9238 222.418 70.0176 225.007 76.2051 225.007C78.5039 225.007 80.2979 224.545 81.5869 223.621C82.876 222.676 83.5205 221.365 83.5205 219.689ZM110.463 215.468V232H100.795V185.078H119.1C122.623 185.078 125.717 185.723 128.381 187.012C131.066 188.301 133.129 190.138 134.568 192.522C136.008 194.886 136.728 197.582 136.728 200.611C136.728 205.209 135.148 208.84 131.99 211.504C128.854 214.146 124.503 215.468 118.938 215.468H110.463ZM110.463 207.637H119.1C121.656 207.637 123.601 207.035 124.933 205.832C126.286 204.629 126.963 202.91 126.963 200.676C126.963 198.377 126.286 196.519 124.933 195.101C123.579 193.683 121.71 192.952 119.325 192.909H110.463V207.637Z" fill="white"/>
<g filter="url(#filter1_d)">
<path d="M163.643 217.27C163.643 216.716 163.447 216.293 163.057 216C162.666 215.701 161.963 215.388 160.947 215.062C159.932 214.73 159.128 214.405 158.535 214.086C156.921 213.214 156.113 212.038 156.113 210.561C156.113 209.792 156.328 209.109 156.758 208.51C157.194 207.904 157.816 207.432 158.623 207.094C159.437 206.755 160.348 206.586 161.357 206.586C162.373 206.586 163.278 206.771 164.072 207.143C164.867 207.507 165.482 208.025 165.918 208.695C166.361 209.366 166.582 210.128 166.582 210.98H163.652C163.652 210.329 163.447 209.825 163.037 209.467C162.627 209.102 162.051 208.92 161.309 208.92C160.592 208.92 160.036 209.073 159.639 209.379C159.242 209.678 159.043 210.076 159.043 210.57C159.043 211.033 159.274 211.42 159.736 211.732C160.205 212.045 160.892 212.338 161.797 212.611C163.464 213.113 164.678 213.734 165.439 214.477C166.201 215.219 166.582 216.143 166.582 217.25C166.582 218.48 166.117 219.447 165.186 220.15C164.255 220.847 163.001 221.195 161.426 221.195C160.332 221.195 159.336 220.997 158.438 220.6C157.539 220.196 156.852 219.646 156.377 218.949C155.908 218.253 155.674 217.445 155.674 216.527H158.613C158.613 218.096 159.551 218.881 161.426 218.881C162.122 218.881 162.666 218.741 163.057 218.461C163.447 218.174 163.643 217.777 163.643 217.27ZM180.336 206.781V216.146C180.336 217.702 179.848 218.933 178.871 219.838C177.901 220.743 176.573 221.195 174.887 221.195C173.227 221.195 171.908 220.756 170.932 219.877C169.955 218.998 169.457 217.79 169.438 216.254V206.781H172.367V216.166C172.367 217.097 172.589 217.777 173.031 218.207C173.48 218.63 174.099 218.842 174.887 218.842C176.534 218.842 177.37 217.976 177.396 216.244V206.781H180.336ZM189.002 215.795H186.668V221H183.738V206.781H189.021C190.701 206.781 191.997 207.156 192.908 207.904C193.82 208.653 194.275 209.711 194.275 211.078C194.275 212.048 194.064 212.859 193.641 213.51C193.224 214.154 192.589 214.669 191.736 215.053L194.812 220.863V221H191.668L189.002 215.795ZM186.668 213.422H189.031C189.767 213.422 190.337 213.236 190.74 212.865C191.144 212.488 191.346 211.97 191.346 211.312C191.346 210.642 191.154 210.115 190.77 209.73C190.392 209.346 189.809 209.154 189.021 209.154H186.668V213.422ZM201.945 213.188L204.904 206.781H208.107L203.439 215.844V221H200.461V215.844L195.793 206.781H199.006L201.945 213.188ZM216.969 218.07H211.832L210.855 221H207.74L213.033 206.781H215.748L221.07 221H217.955L216.969 218.07ZM212.623 215.697H216.178L214.391 210.375L212.623 215.697ZM226.328 215.99V221H223.398V206.781H228.945C230.013 206.781 230.951 206.977 231.758 207.367C232.572 207.758 233.197 208.314 233.633 209.037C234.069 209.753 234.287 210.57 234.287 211.488C234.287 212.882 233.809 213.982 232.852 214.789C231.901 215.59 230.583 215.99 228.896 215.99H226.328ZM226.328 213.617H228.945C229.72 213.617 230.309 213.435 230.713 213.07C231.123 212.706 231.328 212.185 231.328 211.508C231.328 210.811 231.123 210.248 230.713 209.818C230.303 209.389 229.736 209.167 229.014 209.154H226.328V213.617ZM242.572 215.795H240.238V221H237.309V206.781H242.592C244.271 206.781 245.567 207.156 246.479 207.904C247.39 208.653 247.846 209.711 247.846 211.078C247.846 212.048 247.634 212.859 247.211 213.51C246.794 214.154 246.16 214.669 245.307 215.053L248.383 220.863V221H245.238L242.572 215.795ZM240.238 213.422H242.602C243.337 213.422 243.907 213.236 244.311 212.865C244.714 212.488 244.916 211.97 244.916 211.312C244.916 210.642 244.724 210.115 244.34 209.73C243.962 209.346 243.38 209.154 242.592 209.154H240.238V213.422ZM259.109 218.07H253.973L252.996 221H249.881L255.174 206.781H257.889L263.211 221H260.096L259.109 218.07ZM254.764 215.697H258.318L256.531 210.375L254.764 215.697ZM265.539 221V206.781H270.52C272.245 206.781 273.553 207.113 274.445 207.777C275.337 208.435 275.783 209.402 275.783 210.678C275.783 211.374 275.604 211.99 275.246 212.523C274.888 213.051 274.39 213.438 273.752 213.686C274.481 213.868 275.054 214.236 275.471 214.789C275.894 215.342 276.105 216.02 276.105 216.82C276.105 218.188 275.669 219.223 274.797 219.926C273.924 220.629 272.681 220.987 271.066 221H265.539ZM268.469 214.809V218.646H270.979C271.669 218.646 272.206 218.484 272.59 218.158C272.98 217.826 273.176 217.37 273.176 216.791C273.176 215.489 272.502 214.828 271.154 214.809H268.469ZM268.469 212.738H270.637C272.115 212.712 272.854 212.123 272.854 210.971C272.854 210.326 272.665 209.864 272.287 209.584C271.916 209.298 271.327 209.154 270.52 209.154H268.469V212.738ZM290.885 221H287.955V214.906H282.242V221H279.312V206.781H282.242V212.543H287.955V206.781H290.885V221ZM302.656 218.07H297.52L296.543 221H293.428L298.721 206.781H301.436L306.758 221H303.643L302.656 218.07ZM298.311 215.697H301.865L300.078 210.375L298.311 215.697Z" fill="white"/>
</g>
<path d="M156.635 237V229.891H158.822C159.447 229.891 160.006 230.032 160.497 230.315C160.992 230.595 161.378 230.996 161.654 231.517C161.931 232.034 162.069 232.623 162.069 233.284V233.611C162.069 234.272 161.933 234.86 161.659 235.374C161.389 235.888 161.007 236.287 160.512 236.57C160.017 236.854 159.459 236.997 158.837 237H156.635ZM158.1 231.077V235.823H158.808C159.381 235.823 159.818 235.636 160.121 235.262C160.424 234.887 160.578 234.352 160.585 233.655V233.279C160.585 232.557 160.435 232.01 160.136 231.639C159.836 231.264 159.398 231.077 158.822 231.077H158.1ZM165.535 237H164.119V231.717H165.535V237ZM164.036 230.35C164.036 230.138 164.106 229.964 164.246 229.827C164.389 229.69 164.583 229.622 164.827 229.622C165.068 229.622 165.26 229.69 165.403 229.827C165.547 229.964 165.618 230.138 165.618 230.35C165.618 230.564 165.545 230.74 165.398 230.877C165.255 231.014 165.065 231.082 164.827 231.082C164.59 231.082 164.397 231.014 164.251 230.877C164.108 230.74 164.036 230.564 164.036 230.35ZM170.563 235.54C170.563 235.368 170.477 235.232 170.305 235.135C170.135 235.034 169.862 234.944 169.484 234.866C168.228 234.603 167.6 234.069 167.6 233.265C167.6 232.796 167.793 232.405 168.181 232.093C168.571 231.777 169.081 231.619 169.709 231.619C170.38 231.619 170.915 231.777 171.315 232.093C171.719 232.409 171.921 232.819 171.921 233.323H170.51C170.51 233.121 170.445 232.955 170.314 232.825C170.184 232.692 169.981 232.625 169.704 232.625C169.466 232.625 169.283 232.679 169.152 232.786C169.022 232.894 168.957 233.03 168.957 233.196C168.957 233.353 169.03 233.479 169.177 233.577C169.326 233.672 169.577 233.755 169.929 233.826C170.28 233.895 170.576 233.973 170.817 234.061C171.563 234.334 171.936 234.808 171.936 235.481C171.936 235.963 171.729 236.354 171.315 236.653C170.902 236.95 170.368 237.098 169.714 237.098C169.271 237.098 168.877 237.02 168.532 236.863C168.19 236.704 167.922 236.487 167.727 236.214C167.531 235.937 167.434 235.639 167.434 235.32H168.771C168.785 235.571 168.877 235.763 169.05 235.896C169.222 236.03 169.453 236.097 169.743 236.097C170.013 236.097 170.217 236.046 170.354 235.945C170.493 235.841 170.563 235.706 170.563 235.54ZM175.538 230.418V231.717H176.441V232.752H175.538V235.389C175.538 235.584 175.576 235.724 175.65 235.809C175.725 235.893 175.868 235.936 176.08 235.936C176.236 235.936 176.375 235.924 176.495 235.901V236.971C176.218 237.055 175.934 237.098 175.641 237.098C174.651 237.098 174.146 236.598 174.127 235.599V232.752H173.355V231.717H174.127V230.418H175.538ZM181.196 233.04C181.004 233.014 180.835 233.001 180.688 233.001C180.155 233.001 179.805 233.182 179.639 233.543V237H178.228V231.717H179.561L179.6 232.347C179.883 231.862 180.275 231.619 180.776 231.619C180.933 231.619 181.079 231.64 181.216 231.683L181.196 233.04ZM184.369 237H182.953V231.717H184.369V237ZM182.87 230.35C182.87 230.138 182.94 229.964 183.08 229.827C183.223 229.69 183.417 229.622 183.661 229.622C183.902 229.622 184.094 229.69 184.237 229.827C184.381 229.964 184.452 230.138 184.452 230.35C184.452 230.564 184.379 230.74 184.232 230.877C184.089 231.014 183.899 231.082 183.661 231.082C183.424 231.082 183.231 231.014 183.085 230.877C182.942 230.74 182.87 230.564 182.87 230.35ZM191.297 234.407C191.297 235.254 191.116 235.914 190.755 236.39C190.394 236.862 189.889 237.098 189.241 237.098C188.668 237.098 188.211 236.878 187.869 236.438L187.806 237H186.536V229.5H187.947V232.19C188.273 231.81 188.701 231.619 189.231 231.619C189.876 231.619 190.381 231.857 190.745 232.332C191.113 232.804 191.297 233.47 191.297 234.329V234.407ZM189.886 234.305C189.886 233.771 189.801 233.382 189.632 233.138C189.463 232.89 189.21 232.767 188.875 232.767C188.426 232.767 188.117 232.951 187.947 233.318V235.403C188.12 235.774 188.432 235.96 188.885 235.96C189.34 235.96 189.64 235.735 189.783 235.286C189.852 235.071 189.886 234.744 189.886 234.305ZM196.335 236.463C195.987 236.886 195.505 237.098 194.89 237.098C194.323 237.098 193.89 236.935 193.591 236.609C193.295 236.284 193.143 235.807 193.137 235.179V231.717H194.548V235.13C194.548 235.68 194.799 235.955 195.3 235.955C195.778 235.955 196.107 235.789 196.286 235.457V231.717H197.702V237H196.374L196.335 236.463ZM201.456 230.418V231.717H202.359V232.752H201.456V235.389C201.456 235.584 201.493 235.724 201.568 235.809C201.643 235.893 201.786 235.936 201.998 235.936C202.154 235.936 202.293 235.924 202.413 235.901V236.971C202.136 237.055 201.852 237.098 201.559 237.098C200.569 237.098 200.064 236.598 200.045 235.599V232.752H199.273V231.717H200.045V230.418H201.456ZM203.779 234.31C203.779 233.785 203.88 233.318 204.082 232.908C204.284 232.498 204.574 232.181 204.951 231.956C205.332 231.731 205.773 231.619 206.274 231.619C206.987 231.619 207.568 231.837 208.018 232.273C208.47 232.71 208.722 233.302 208.774 234.051L208.784 234.412C208.784 235.223 208.558 235.874 208.105 236.365C207.653 236.854 207.046 237.098 206.284 237.098C205.522 237.098 204.914 236.854 204.458 236.365C204.006 235.877 203.779 235.213 203.779 234.373V234.31ZM205.19 234.412C205.19 234.913 205.285 235.298 205.474 235.564C205.662 235.828 205.933 235.96 206.284 235.96C206.626 235.96 206.893 235.83 207.085 235.569C207.277 235.306 207.373 234.886 207.373 234.31C207.373 233.818 207.277 233.437 207.085 233.167C206.893 232.897 206.623 232.762 206.274 232.762C205.929 232.762 205.662 232.897 205.474 233.167C205.285 233.434 205.19 233.849 205.19 234.412ZM213.622 233.04C213.43 233.014 213.261 233.001 213.114 233.001C212.58 233.001 212.23 233.182 212.064 233.543V237H210.653V231.717H211.986L212.025 232.347C212.309 231.862 212.701 231.619 213.202 231.619C213.358 231.619 213.505 231.64 213.642 231.683L213.622 233.04ZM218.889 237V229.891H221.379C222.242 229.891 222.896 230.057 223.342 230.389C223.788 230.717 224.011 231.201 224.011 231.839C224.011 232.187 223.921 232.495 223.742 232.762C223.563 233.025 223.314 233.219 222.995 233.343C223.36 233.434 223.646 233.618 223.854 233.895C224.066 234.171 224.172 234.51 224.172 234.91C224.172 235.594 223.954 236.111 223.518 236.463C223.081 236.814 222.46 236.993 221.652 237H218.889ZM220.354 233.904V235.823H221.608C221.953 235.823 222.222 235.742 222.414 235.579C222.609 235.413 222.707 235.185 222.707 234.896C222.707 234.244 222.37 233.914 221.696 233.904H220.354ZM220.354 232.869H221.438C222.176 232.856 222.546 232.562 222.546 231.985C222.546 231.663 222.451 231.432 222.263 231.292C222.077 231.149 221.783 231.077 221.379 231.077H220.354V232.869ZM229.244 237C229.179 236.873 229.132 236.715 229.103 236.526C228.761 236.907 228.316 237.098 227.77 237.098C227.252 237.098 226.822 236.948 226.48 236.648C226.142 236.349 225.973 235.971 225.973 235.516C225.973 234.956 226.179 234.526 226.593 234.227C227.009 233.927 227.61 233.776 228.395 233.772H229.044V233.47C229.044 233.226 228.98 233.03 228.854 232.884C228.73 232.737 228.533 232.664 228.263 232.664C228.025 232.664 227.838 232.721 227.701 232.835C227.568 232.949 227.501 233.105 227.501 233.304H226.09C226.09 232.998 226.184 232.715 226.373 232.454C226.562 232.194 226.829 231.99 227.174 231.844C227.519 231.694 227.906 231.619 228.336 231.619C228.987 231.619 229.503 231.784 229.884 232.112C230.268 232.438 230.46 232.897 230.46 233.489V235.779C230.463 236.281 230.533 236.66 230.67 236.917V237H229.244ZM228.077 236.019C228.285 236.019 228.478 235.973 228.653 235.882C228.829 235.787 228.959 235.662 229.044 235.506V234.598H228.517C227.81 234.598 227.434 234.842 227.389 235.33L227.384 235.413C227.384 235.589 227.446 235.734 227.569 235.848C227.693 235.962 227.862 236.019 228.077 236.019ZM233.921 232.293C234.295 231.844 234.766 231.619 235.332 231.619C236.478 231.619 237.059 232.285 237.075 233.616V237H235.664V233.655C235.664 233.353 235.599 233.13 235.469 232.986C235.339 232.84 235.122 232.767 234.819 232.767C234.406 232.767 234.106 232.926 233.921 233.245V237H232.51V229.5H233.921V232.293ZM242.201 237C242.136 236.873 242.089 236.715 242.06 236.526C241.718 236.907 241.273 237.098 240.727 237.098C240.209 237.098 239.779 236.948 239.438 236.648C239.099 236.349 238.93 235.971 238.93 235.516C238.93 234.956 239.136 234.526 239.55 234.227C239.966 233.927 240.567 233.776 241.352 233.772H242.001V233.47C242.001 233.226 241.938 233.03 241.811 232.884C241.687 232.737 241.49 232.664 241.22 232.664C240.982 232.664 240.795 232.721 240.658 232.835C240.525 232.949 240.458 233.105 240.458 233.304H239.047C239.047 232.998 239.141 232.715 239.33 232.454C239.519 232.194 239.786 231.99 240.131 231.844C240.476 231.694 240.863 231.619 241.293 231.619C241.944 231.619 242.46 231.784 242.841 232.112C243.225 232.438 243.417 232.897 243.417 233.489V235.779C243.42 236.281 243.49 236.66 243.627 236.917V237H242.201ZM241.034 236.019C241.243 236.019 241.435 235.973 241.61 235.882C241.786 235.787 241.916 235.662 242.001 235.506V234.598H241.474C240.767 234.598 240.391 234.842 240.346 235.33L240.341 235.413C240.341 235.589 240.403 235.734 240.526 235.848C240.65 235.962 240.819 236.019 241.034 236.019ZM246.8 231.717L246.844 232.327C247.221 231.855 247.728 231.619 248.362 231.619C248.922 231.619 249.339 231.784 249.612 232.112C249.886 232.441 250.026 232.933 250.032 233.587V237H248.621V233.621C248.621 233.322 248.556 233.105 248.426 232.972C248.296 232.835 248.079 232.767 247.776 232.767C247.379 232.767 247.081 232.936 246.883 233.274V237H245.472V231.717H246.8ZM255.689 237V229.891H258.18C259.042 229.891 259.697 230.057 260.143 230.389C260.589 230.717 260.812 231.201 260.812 231.839C260.812 232.187 260.722 232.495 260.543 232.762C260.364 233.025 260.115 233.219 259.796 233.343C260.16 233.434 260.447 233.618 260.655 233.895C260.867 234.171 260.973 234.51 260.973 234.91C260.973 235.594 260.755 236.111 260.318 236.463C259.882 236.814 259.26 236.993 258.453 237H255.689ZM257.154 233.904V235.823H258.409C258.754 235.823 259.023 235.742 259.215 235.579C259.41 235.413 259.508 235.185 259.508 234.896C259.508 234.244 259.171 233.914 258.497 233.904H257.154ZM257.154 232.869H258.238C258.977 232.856 259.347 232.562 259.347 231.985C259.347 231.663 259.252 231.432 259.063 231.292C258.878 231.149 258.583 231.077 258.18 231.077H257.154V232.869ZM266.045 237C265.98 236.873 265.933 236.715 265.903 236.526C265.562 236.907 265.117 237.098 264.57 237.098C264.053 237.098 263.623 236.948 263.281 236.648C262.943 236.349 262.773 235.971 262.773 235.516C262.773 234.956 262.98 234.526 263.394 234.227C263.81 233.927 264.411 233.776 265.195 233.772H265.845V233.47C265.845 233.226 265.781 233.03 265.654 232.884C265.531 232.737 265.334 232.664 265.063 232.664C264.826 232.664 264.639 232.721 264.502 232.835C264.368 232.949 264.302 233.105 264.302 233.304H262.891C262.891 232.998 262.985 232.715 263.174 232.454C263.363 232.194 263.63 231.99 263.975 231.844C264.32 231.694 264.707 231.619 265.137 231.619C265.788 231.619 266.304 231.784 266.685 232.112C267.069 232.438 267.261 232.897 267.261 233.489V235.779C267.264 236.281 267.334 236.66 267.471 236.917V237H266.045ZM264.878 236.019C265.086 236.019 265.278 235.973 265.454 235.882C265.63 235.787 265.76 235.662 265.845 235.506V234.598H265.317C264.611 234.598 264.235 234.842 264.189 235.33L264.185 235.413C264.185 235.589 264.246 235.734 264.37 235.848C264.494 235.962 264.663 236.019 264.878 236.019ZM270.644 231.717L270.688 232.327C271.065 231.855 271.571 231.619 272.206 231.619C272.766 231.619 273.183 231.784 273.456 232.112C273.729 232.441 273.869 232.933 273.876 233.587V237H272.465V233.621C272.465 233.322 272.4 233.105 272.27 232.972C272.139 232.835 271.923 232.767 271.62 232.767C271.223 232.767 270.925 232.936 270.727 233.274V237H269.315V231.717H270.644ZM275.745 234.319C275.745 233.509 275.937 232.856 276.321 232.361C276.709 231.867 277.229 231.619 277.884 231.619C278.463 231.619 278.914 231.818 279.236 232.215L279.295 231.717H280.574V236.824C280.574 237.286 280.468 237.688 280.257 238.03C280.049 238.372 279.754 238.632 279.373 238.812C278.992 238.991 278.546 239.08 278.035 239.08C277.648 239.08 277.27 239.002 276.902 238.846C276.535 238.693 276.256 238.494 276.067 238.25L276.692 237.391C277.044 237.785 277.47 237.981 277.972 237.981C278.346 237.981 278.637 237.881 278.846 237.679C279.054 237.48 279.158 237.197 279.158 236.829V236.546C278.833 236.914 278.405 237.098 277.874 237.098C277.239 237.098 276.725 236.85 276.331 236.355C275.94 235.857 275.745 235.198 275.745 234.378V234.319ZM277.156 234.422C277.156 234.9 277.252 235.276 277.444 235.55C277.636 235.82 277.9 235.955 278.235 235.955C278.665 235.955 278.973 235.794 279.158 235.472V233.25C278.969 232.928 278.665 232.767 278.245 232.767C277.907 232.767 277.64 232.905 277.444 233.182C277.252 233.458 277.156 233.872 277.156 234.422ZM285.827 236.463C285.479 236.886 284.997 237.098 284.382 237.098C283.815 237.098 283.382 236.935 283.083 236.609C282.787 236.284 282.635 235.807 282.629 235.179V231.717H284.04V235.13C284.04 235.68 284.291 235.955 284.792 235.955C285.271 235.955 285.599 235.789 285.778 235.457V231.717H287.194V237H285.866L285.827 236.463ZM290.558 231.717L290.602 232.327C290.979 231.855 291.485 231.619 292.12 231.619C292.68 231.619 293.097 231.784 293.37 232.112C293.644 232.441 293.784 232.933 293.79 233.587V237H292.379V233.621C292.379 233.322 292.314 233.105 292.184 232.972C292.053 232.835 291.837 232.767 291.534 232.767C291.137 232.767 290.839 232.936 290.641 233.274V237H289.229V231.717H290.558ZM298.926 237C298.861 236.873 298.813 236.715 298.784 236.526C298.442 236.907 297.998 237.098 297.451 237.098C296.934 237.098 296.504 236.948 296.162 236.648C295.824 236.349 295.654 235.971 295.654 235.516C295.654 234.956 295.861 234.526 296.274 234.227C296.691 233.927 297.292 233.776 298.076 233.772H298.726V233.47C298.726 233.226 298.662 233.03 298.535 232.884C298.411 232.737 298.215 232.664 297.944 232.664C297.707 232.664 297.52 232.721 297.383 232.835C297.249 232.949 297.183 233.105 297.183 233.304H295.771C295.771 232.998 295.866 232.715 296.055 232.454C296.243 232.194 296.51 231.99 296.855 231.844C297.201 231.694 297.588 231.619 298.018 231.619C298.669 231.619 299.185 231.784 299.565 232.112C299.95 232.438 300.142 232.897 300.142 233.489V235.779C300.145 236.281 300.215 236.66 300.352 236.917V237H298.926ZM297.759 236.019C297.967 236.019 298.159 235.973 298.335 235.882C298.511 235.787 298.641 235.662 298.726 235.506V234.598H298.198C297.492 234.598 297.116 234.842 297.07 235.33L297.065 235.413C297.065 235.589 297.127 235.734 297.251 235.848C297.375 235.962 297.544 236.019 297.759 236.019ZM303.524 231.717L303.568 232.327C303.946 231.855 304.452 231.619 305.087 231.619C305.647 231.619 306.063 231.784 306.337 232.112C306.61 232.441 306.75 232.933 306.757 233.587V237H305.346V233.621C305.346 233.322 305.281 233.105 305.15 232.972C305.02 232.835 304.804 232.767 304.501 232.767C304.104 232.767 303.806 232.936 303.607 233.274V237H302.196V231.717H303.524Z" fill="white"/>
<rect x="237.748" width="78.3707" height="78.3707" transform="rotate(28.794 237.748 0)" fill="#A5B1C2"/>
<rect x="41.7482" y="368" width="78.3707" height="78.3707" transform="rotate(28.794 41.7482 368)" fill="#A5B1C2"/>
<defs>
<filter id="filter0_d" x="-0.00012207" y="122.02" width="180.037" height="188.517" filterUnits="userSpaceOnUse" color-interpolation-filters="sRGB">
<feFlood flood-opacity="0" result="BackgroundImageFix"/>
<feColorMatrix in="SourceAlpha" type="matrix" values="0 0 0 0 0 0 0 0 0 0 0 0 0 0 0 0 0 0 127 0" result="hardAlpha"/>
<feOffset dy="4"/>
<feGaussianBlur stdDeviation="2"/>
<feComposite in2="hardAlpha" operator="out"/>
<feColorMatrix type="matrix" values="0 0 0 0 0 0 0 0 0 0 0 0 0 0 0 0 0 0 0.25 0"/>
<feBlend mode="normal" in2="BackgroundImageFix" result="effect1_dropShadow"/>
<feBlend mode="normal" in="SourceGraphic" in2="effect1_dropShadow" result="shape"/>
</filter>
<filter id="filter1_d" x="151.674" y="206.586" width="159.084" height="22.6094" filterUnits="userSpaceOnUse" color-interpolation-filters="sRGB">
<feFlood flood-opacity="0" result="BackgroundImageFix"/>
<feColorMatrix in="SourceAlpha" type="matrix" values="0 0 0 0 0 0 0 0 0 0 0 0 0 0 0 0 0 0 127 0" result="hardAlpha"/>
<feOffset dy="4"/>
<feGaussianBlur stdDeviation="2"/>
<feComposite in2="hardAlpha" operator="out"/>
<feColorMatrix type="matrix" values="0 0 0 0 0 0 0 0 0 0 0 0 0 0 0 0 0 0 0.25 0"/>
<feBlend mode="normal" in2="BackgroundImageFix" result="effect1_dropShadow"/>
<feBlend mode="normal" in="SourceGraphic" in2="effect1_dropShadow" result="shape"/>
</filter>
</defs>
</svg>
