<svg width="360" height="640" viewBox="0 0 360 640" fill="none" xmlns="http://www.w3.org/2000/svg">
<rect width="360" height="640" fill="#EA2027"/>
<g filter="url(#filter0_d)">
<path d="M194.738 276.886C186.37 259.124 172.426 244.584 155.031 235.479C137.636 226.374 117.741 223.203 98.3773 226.45C79.0133 229.696 61.2409 239.182 47.7662 253.463C34.2915 267.743 25.8529 286.036 23.7354 305.556C21.6179 325.075 25.9375 344.752 36.0364 361.59C46.1353 378.428 61.4603 391.504 79.6776 398.827C97.8949 406.151 118.006 407.32 136.95 402.157C155.893 396.994 172.63 385.782 184.612 370.228L156.509 348.579C149.247 358.006 139.103 364.801 127.621 367.931C116.14 371.06 103.951 370.351 92.9093 365.913C81.868 361.474 72.5797 353.549 66.4588 343.343C60.3379 333.138 57.7199 321.212 59.0033 309.382C60.2867 297.551 65.4012 286.464 73.5681 277.808C81.735 269.153 92.5067 263.404 104.243 261.436C115.979 259.469 128.037 261.39 138.58 266.909C149.123 272.427 157.574 281.24 162.646 292.005L194.738 276.886Z" fill="white"/>
</g>
<rect x="59" y="260" width="110" height="110" rx="55" fill="#E10D0D"/>
<path d="M102.521 322.689C102.521 320.863 101.876 319.467 100.587 318.5C99.2979 317.512 96.9775 316.48 93.626 315.406C90.2744 314.311 87.6211 313.236 85.666 312.184C80.3379 309.305 77.6738 305.427 77.6738 300.55C77.6738 298.015 78.3828 295.759 79.8008 293.782C81.2402 291.784 83.292 290.227 85.9561 289.109C88.6416 287.992 91.6494 287.434 94.9795 287.434C98.3311 287.434 101.317 288.046 103.938 289.271C106.56 290.474 108.59 292.182 110.029 294.395C111.49 296.607 112.221 299.121 112.221 301.936H102.553C102.553 299.787 101.876 298.122 100.522 296.94C99.1689 295.737 97.2676 295.136 94.8184 295.136C92.4551 295.136 90.6182 295.641 89.3076 296.65C87.9971 297.639 87.3418 298.949 87.3418 300.582C87.3418 302.107 88.1045 303.386 89.6299 304.417C91.1768 305.448 93.4434 306.415 96.4297 307.317C101.93 308.972 105.937 311.023 108.45 313.473C110.964 315.922 112.221 318.973 112.221 322.625C112.221 326.686 110.685 329.876 107.612 332.196C104.54 334.495 100.404 335.645 95.2051 335.645C91.5957 335.645 88.3086 334.989 85.3438 333.679C82.3789 332.347 80.1123 330.531 78.5439 328.232C76.9971 325.934 76.2236 323.27 76.2236 320.24H85.9238C85.9238 325.418 89.0176 328.007 95.2051 328.007C97.5039 328.007 99.2979 327.545 100.587 326.621C101.876 325.676 102.521 324.365 102.521 322.689ZM129.463 318.468V335H119.795V288.078H138.1C141.623 288.078 144.717 288.723 147.381 290.012C150.066 291.301 152.129 293.138 153.568 295.522C155.008 297.886 155.728 300.582 155.728 303.611C155.728 308.209 154.148 311.84 150.99 314.504C147.854 317.146 143.503 318.468 137.938 318.468H129.463ZM129.463 310.637H138.1C140.656 310.637 142.601 310.035 143.933 308.832C145.286 307.629 145.963 305.91 145.963 303.676C145.963 301.377 145.286 299.519 143.933 298.101C142.579 296.683 140.71 295.952 138.325 295.909H129.463V310.637Z" fill="white"/>
<g filter="url(#filter1_d)">
<path d="M182.643 320.27C182.643 319.716 182.447 319.293 182.057 319C181.666 318.701 180.963 318.388 179.947 318.062C178.932 317.73 178.128 317.405 177.535 317.086C175.921 316.214 175.113 315.038 175.113 313.561C175.113 312.792 175.328 312.109 175.758 311.51C176.194 310.904 176.816 310.432 177.623 310.094C178.437 309.755 179.348 309.586 180.357 309.586C181.373 309.586 182.278 309.771 183.072 310.143C183.867 310.507 184.482 311.025 184.918 311.695C185.361 312.366 185.582 313.128 185.582 313.98H182.652C182.652 313.329 182.447 312.825 182.037 312.467C181.627 312.102 181.051 311.92 180.309 311.92C179.592 311.92 179.036 312.073 178.639 312.379C178.242 312.678 178.043 313.076 178.043 313.57C178.043 314.033 178.274 314.42 178.736 314.732C179.205 315.045 179.892 315.338 180.797 315.611C182.464 316.113 183.678 316.734 184.439 317.477C185.201 318.219 185.582 319.143 185.582 320.25C185.582 321.48 185.117 322.447 184.186 323.15C183.255 323.847 182.001 324.195 180.426 324.195C179.332 324.195 178.336 323.997 177.438 323.6C176.539 323.196 175.852 322.646 175.377 321.949C174.908 321.253 174.674 320.445 174.674 319.527H177.613C177.613 321.096 178.551 321.881 180.426 321.881C181.122 321.881 181.666 321.741 182.057 321.461C182.447 321.174 182.643 320.777 182.643 320.27ZM199.336 309.781V319.146C199.336 320.702 198.848 321.933 197.871 322.838C196.901 323.743 195.573 324.195 193.887 324.195C192.227 324.195 190.908 323.756 189.932 322.877C188.955 321.998 188.457 320.79 188.438 319.254V309.781H191.367V319.166C191.367 320.097 191.589 320.777 192.031 321.207C192.48 321.63 193.099 321.842 193.887 321.842C195.534 321.842 196.37 320.976 196.396 319.244V309.781H199.336ZM208.002 318.795H205.668V324H202.738V309.781H208.021C209.701 309.781 210.997 310.156 211.908 310.904C212.82 311.653 213.275 312.711 213.275 314.078C213.275 315.048 213.064 315.859 212.641 316.51C212.224 317.154 211.589 317.669 210.736 318.053L213.812 323.863V324H210.668L208.002 318.795ZM205.668 316.422H208.031C208.767 316.422 209.337 316.236 209.74 315.865C210.144 315.488 210.346 314.97 210.346 314.312C210.346 313.642 210.154 313.115 209.77 312.73C209.392 312.346 208.809 312.154 208.021 312.154H205.668V316.422ZM220.945 316.188L223.904 309.781H227.107L222.439 318.844V324H219.461V318.844L214.793 309.781H218.006L220.945 316.188ZM235.969 321.07H230.832L229.855 324H226.74L232.033 309.781H234.748L240.07 324H236.955L235.969 321.07ZM231.623 318.697H235.178L233.391 313.375L231.623 318.697ZM245.328 318.99V324H242.398V309.781H247.945C249.013 309.781 249.951 309.977 250.758 310.367C251.572 310.758 252.197 311.314 252.633 312.037C253.069 312.753 253.287 313.57 253.287 314.488C253.287 315.882 252.809 316.982 251.852 317.789C250.901 318.59 249.583 318.99 247.896 318.99H245.328ZM245.328 316.617H247.945C248.72 316.617 249.309 316.435 249.713 316.07C250.123 315.706 250.328 315.185 250.328 314.508C250.328 313.811 250.123 313.248 249.713 312.818C249.303 312.389 248.736 312.167 248.014 312.154H245.328V316.617ZM261.572 318.795H259.238V324H256.309V309.781H261.592C263.271 309.781 264.567 310.156 265.479 310.904C266.39 311.653 266.846 312.711 266.846 314.078C266.846 315.048 266.634 315.859 266.211 316.51C265.794 317.154 265.16 317.669 264.307 318.053L267.383 323.863V324H264.238L261.572 318.795ZM259.238 316.422H261.602C262.337 316.422 262.907 316.236 263.311 315.865C263.714 315.488 263.916 314.97 263.916 314.312C263.916 313.642 263.724 313.115 263.34 312.73C262.962 312.346 262.38 312.154 261.592 312.154H259.238V316.422ZM278.109 321.07H272.973L271.996 324H268.881L274.174 309.781H276.889L282.211 324H279.096L278.109 321.07ZM273.764 318.697H277.318L275.531 313.375L273.764 318.697ZM284.539 324V309.781H289.52C291.245 309.781 292.553 310.113 293.445 310.777C294.337 311.435 294.783 312.402 294.783 313.678C294.783 314.374 294.604 314.99 294.246 315.523C293.888 316.051 293.39 316.438 292.752 316.686C293.481 316.868 294.054 317.236 294.471 317.789C294.894 318.342 295.105 319.02 295.105 319.82C295.105 321.188 294.669 322.223 293.797 322.926C292.924 323.629 291.681 323.987 290.066 324H284.539ZM287.469 317.809V321.646H289.979C290.669 321.646 291.206 321.484 291.59 321.158C291.98 320.826 292.176 320.37 292.176 319.791C292.176 318.489 291.502 317.828 290.154 317.809H287.469ZM287.469 315.738H289.637C291.115 315.712 291.854 315.123 291.854 313.971C291.854 313.326 291.665 312.864 291.287 312.584C290.916 312.298 290.327 312.154 289.52 312.154H287.469V315.738ZM309.885 324H306.955V317.906H301.242V324H298.312V309.781H301.242V315.543H306.955V309.781H309.885V324ZM321.656 321.07H316.52L315.543 324H312.428L317.721 309.781H320.436L325.758 324H322.643L321.656 321.07ZM317.311 318.697H320.865L319.078 313.375L317.311 318.697Z" fill="white"/>
</g>
<path d="M175.635 340V332.891H177.822C178.447 332.891 179.006 333.032 179.497 333.315C179.992 333.595 180.378 333.996 180.654 334.517C180.931 335.034 181.069 335.623 181.069 336.284V336.611C181.069 337.272 180.933 337.86 180.659 338.374C180.389 338.888 180.007 339.287 179.512 339.57C179.017 339.854 178.459 339.997 177.837 340H175.635ZM177.1 334.077V338.823H177.808C178.381 338.823 178.818 338.636 179.121 338.262C179.424 337.887 179.578 337.352 179.585 336.655V336.279C179.585 335.557 179.435 335.01 179.136 334.639C178.836 334.264 178.398 334.077 177.822 334.077H177.1ZM184.535 340H183.119V334.717H184.535V340ZM183.036 333.35C183.036 333.138 183.106 332.964 183.246 332.827C183.389 332.69 183.583 332.622 183.827 332.622C184.068 332.622 184.26 332.69 184.403 332.827C184.547 332.964 184.618 333.138 184.618 333.35C184.618 333.564 184.545 333.74 184.398 333.877C184.255 334.014 184.065 334.082 183.827 334.082C183.59 334.082 183.397 334.014 183.251 333.877C183.108 333.74 183.036 333.564 183.036 333.35ZM189.563 338.54C189.563 338.368 189.477 338.232 189.305 338.135C189.135 338.034 188.862 337.944 188.484 337.866C187.228 337.603 186.6 337.069 186.6 336.265C186.6 335.796 186.793 335.405 187.181 335.093C187.571 334.777 188.081 334.619 188.709 334.619C189.38 334.619 189.915 334.777 190.315 335.093C190.719 335.409 190.921 335.819 190.921 336.323H189.51C189.51 336.121 189.445 335.955 189.314 335.825C189.184 335.692 188.981 335.625 188.704 335.625C188.466 335.625 188.283 335.679 188.152 335.786C188.022 335.894 187.957 336.03 187.957 336.196C187.957 336.353 188.03 336.479 188.177 336.577C188.326 336.672 188.577 336.755 188.929 336.826C189.28 336.895 189.576 336.973 189.817 337.061C190.563 337.334 190.936 337.808 190.936 338.481C190.936 338.963 190.729 339.354 190.315 339.653C189.902 339.95 189.368 340.098 188.714 340.098C188.271 340.098 187.877 340.02 187.532 339.863C187.19 339.704 186.922 339.487 186.727 339.214C186.531 338.937 186.434 338.639 186.434 338.32H187.771C187.785 338.571 187.877 338.763 188.05 338.896C188.222 339.03 188.453 339.097 188.743 339.097C189.013 339.097 189.217 339.046 189.354 338.945C189.493 338.841 189.563 338.706 189.563 338.54ZM194.538 333.418V334.717H195.441V335.752H194.538V338.389C194.538 338.584 194.576 338.724 194.65 338.809C194.725 338.893 194.868 338.936 195.08 338.936C195.236 338.936 195.375 338.924 195.495 338.901V339.971C195.218 340.055 194.934 340.098 194.641 340.098C193.651 340.098 193.146 339.598 193.127 338.599V335.752H192.355V334.717H193.127V333.418H194.538ZM200.196 336.04C200.004 336.014 199.835 336.001 199.688 336.001C199.155 336.001 198.805 336.182 198.639 336.543V340H197.228V334.717H198.561L198.6 335.347C198.883 334.862 199.275 334.619 199.776 334.619C199.933 334.619 200.079 334.64 200.216 334.683L200.196 336.04ZM203.369 340H201.953V334.717H203.369V340ZM201.87 333.35C201.87 333.138 201.94 332.964 202.08 332.827C202.223 332.69 202.417 332.622 202.661 332.622C202.902 332.622 203.094 332.69 203.237 332.827C203.381 332.964 203.452 333.138 203.452 333.35C203.452 333.564 203.379 333.74 203.232 333.877C203.089 334.014 202.899 334.082 202.661 334.082C202.424 334.082 202.231 334.014 202.085 333.877C201.942 333.74 201.87 333.564 201.87 333.35ZM210.297 337.407C210.297 338.254 210.116 338.914 209.755 339.39C209.394 339.862 208.889 340.098 208.241 340.098C207.668 340.098 207.211 339.878 206.869 339.438L206.806 340H205.536V332.5H206.947V335.19C207.273 334.81 207.701 334.619 208.231 334.619C208.876 334.619 209.381 334.857 209.745 335.332C210.113 335.804 210.297 336.47 210.297 337.329V337.407ZM208.886 337.305C208.886 336.771 208.801 336.382 208.632 336.138C208.463 335.89 208.21 335.767 207.875 335.767C207.426 335.767 207.117 335.951 206.947 336.318V338.403C207.12 338.774 207.432 338.96 207.885 338.96C208.34 338.96 208.64 338.735 208.783 338.286C208.852 338.071 208.886 337.744 208.886 337.305ZM215.335 339.463C214.987 339.886 214.505 340.098 213.89 340.098C213.323 340.098 212.89 339.935 212.591 339.609C212.295 339.284 212.143 338.807 212.137 338.179V334.717H213.548V338.13C213.548 338.68 213.799 338.955 214.3 338.955C214.778 338.955 215.107 338.789 215.286 338.457V334.717H216.702V340H215.374L215.335 339.463ZM220.456 333.418V334.717H221.359V335.752H220.456V338.389C220.456 338.584 220.493 338.724 220.568 338.809C220.643 338.893 220.786 338.936 220.998 338.936C221.154 338.936 221.293 338.924 221.413 338.901V339.971C221.136 340.055 220.852 340.098 220.559 340.098C219.569 340.098 219.064 339.598 219.045 338.599V335.752H218.273V334.717H219.045V333.418H220.456ZM222.779 337.31C222.779 336.785 222.88 336.318 223.082 335.908C223.284 335.498 223.574 335.181 223.951 334.956C224.332 334.731 224.773 334.619 225.274 334.619C225.987 334.619 226.568 334.837 227.018 335.273C227.47 335.71 227.722 336.302 227.774 337.051L227.784 337.412C227.784 338.223 227.558 338.874 227.105 339.365C226.653 339.854 226.046 340.098 225.284 340.098C224.522 340.098 223.914 339.854 223.458 339.365C223.006 338.877 222.779 338.213 222.779 337.373V337.31ZM224.19 337.412C224.19 337.913 224.285 338.298 224.474 338.564C224.662 338.828 224.933 338.96 225.284 338.96C225.626 338.96 225.893 338.83 226.085 338.569C226.277 338.306 226.373 337.886 226.373 337.31C226.373 336.818 226.277 336.437 226.085 336.167C225.893 335.897 225.623 335.762 225.274 335.762C224.929 335.762 224.662 335.897 224.474 336.167C224.285 336.434 224.19 336.849 224.19 337.412ZM232.622 336.04C232.43 336.014 232.261 336.001 232.114 336.001C231.58 336.001 231.23 336.182 231.064 336.543V340H229.653V334.717H230.986L231.025 335.347C231.309 334.862 231.701 334.619 232.202 334.619C232.358 334.619 232.505 334.64 232.642 334.683L232.622 336.04ZM237.889 340V332.891H240.379C241.242 332.891 241.896 333.057 242.342 333.389C242.788 333.717 243.011 334.201 243.011 334.839C243.011 335.187 242.921 335.495 242.742 335.762C242.563 336.025 242.314 336.219 241.995 336.343C242.36 336.434 242.646 336.618 242.854 336.895C243.066 337.171 243.172 337.51 243.172 337.91C243.172 338.594 242.954 339.111 242.518 339.463C242.081 339.814 241.46 339.993 240.652 340H237.889ZM239.354 336.904V338.823H240.608C240.953 338.823 241.222 338.742 241.414 338.579C241.609 338.413 241.707 338.185 241.707 337.896C241.707 337.244 241.37 336.914 240.696 336.904H239.354ZM239.354 335.869H240.438C241.176 335.856 241.546 335.562 241.546 334.985C241.546 334.663 241.451 334.432 241.263 334.292C241.077 334.149 240.783 334.077 240.379 334.077H239.354V335.869ZM248.244 340C248.179 339.873 248.132 339.715 248.103 339.526C247.761 339.907 247.316 340.098 246.77 340.098C246.252 340.098 245.822 339.948 245.48 339.648C245.142 339.349 244.973 338.971 244.973 338.516C244.973 337.956 245.179 337.526 245.593 337.227C246.009 336.927 246.61 336.776 247.395 336.772H248.044V336.47C248.044 336.226 247.98 336.03 247.854 335.884C247.73 335.737 247.533 335.664 247.263 335.664C247.025 335.664 246.838 335.721 246.701 335.835C246.568 335.949 246.501 336.105 246.501 336.304H245.09C245.09 335.998 245.184 335.715 245.373 335.454C245.562 335.194 245.829 334.99 246.174 334.844C246.519 334.694 246.906 334.619 247.336 334.619C247.987 334.619 248.503 334.784 248.884 335.112C249.268 335.438 249.46 335.897 249.46 336.489V338.779C249.463 339.281 249.533 339.66 249.67 339.917V340H248.244ZM247.077 339.019C247.285 339.019 247.478 338.973 247.653 338.882C247.829 338.787 247.959 338.662 248.044 338.506V337.598H247.517C246.81 337.598 246.434 337.842 246.389 338.33L246.384 338.413C246.384 338.589 246.446 338.734 246.569 338.848C246.693 338.962 246.862 339.019 247.077 339.019ZM252.921 335.293C253.295 334.844 253.766 334.619 254.332 334.619C255.478 334.619 256.059 335.285 256.075 336.616V340H254.664V336.655C254.664 336.353 254.599 336.13 254.469 335.986C254.339 335.84 254.122 335.767 253.819 335.767C253.406 335.767 253.106 335.926 252.921 336.245V340H251.51V332.5H252.921V335.293ZM261.201 340C261.136 339.873 261.089 339.715 261.06 339.526C260.718 339.907 260.273 340.098 259.727 340.098C259.209 340.098 258.779 339.948 258.438 339.648C258.099 339.349 257.93 338.971 257.93 338.516C257.93 337.956 258.136 337.526 258.55 337.227C258.966 336.927 259.567 336.776 260.352 336.772H261.001V336.47C261.001 336.226 260.938 336.03 260.811 335.884C260.687 335.737 260.49 335.664 260.22 335.664C259.982 335.664 259.795 335.721 259.658 335.835C259.525 335.949 259.458 336.105 259.458 336.304H258.047C258.047 335.998 258.141 335.715 258.33 335.454C258.519 335.194 258.786 334.99 259.131 334.844C259.476 334.694 259.863 334.619 260.293 334.619C260.944 334.619 261.46 334.784 261.841 335.112C262.225 335.438 262.417 335.897 262.417 336.489V338.779C262.42 339.281 262.49 339.66 262.627 339.917V340H261.201ZM260.034 339.019C260.243 339.019 260.435 338.973 260.61 338.882C260.786 338.787 260.916 338.662 261.001 338.506V337.598H260.474C259.767 337.598 259.391 337.842 259.346 338.33L259.341 338.413C259.341 338.589 259.403 338.734 259.526 338.848C259.65 338.962 259.819 339.019 260.034 339.019ZM265.8 334.717L265.844 335.327C266.221 334.855 266.728 334.619 267.362 334.619C267.922 334.619 268.339 334.784 268.612 335.112C268.886 335.441 269.026 335.933 269.032 336.587V340H267.621V336.621C267.621 336.322 267.556 336.105 267.426 335.972C267.296 335.835 267.079 335.767 266.776 335.767C266.379 335.767 266.081 335.936 265.883 336.274V340H264.472V334.717H265.8ZM274.689 340V332.891H277.18C278.042 332.891 278.697 333.057 279.143 333.389C279.589 333.717 279.812 334.201 279.812 334.839C279.812 335.187 279.722 335.495 279.543 335.762C279.364 336.025 279.115 336.219 278.796 336.343C279.16 336.434 279.447 336.618 279.655 336.895C279.867 337.171 279.973 337.51 279.973 337.91C279.973 338.594 279.755 339.111 279.318 339.463C278.882 339.814 278.26 339.993 277.453 340H274.689ZM276.154 336.904V338.823H277.409C277.754 338.823 278.023 338.742 278.215 338.579C278.41 338.413 278.508 338.185 278.508 337.896C278.508 337.244 278.171 336.914 277.497 336.904H276.154ZM276.154 335.869H277.238C277.977 335.856 278.347 335.562 278.347 334.985C278.347 334.663 278.252 334.432 278.063 334.292C277.878 334.149 277.583 334.077 277.18 334.077H276.154V335.869ZM285.045 340C284.98 339.873 284.933 339.715 284.903 339.526C284.562 339.907 284.117 340.098 283.57 340.098C283.053 340.098 282.623 339.948 282.281 339.648C281.943 339.349 281.773 338.971 281.773 338.516C281.773 337.956 281.98 337.526 282.394 337.227C282.81 336.927 283.411 336.776 284.195 336.772H284.845V336.47C284.845 336.226 284.781 336.03 284.654 335.884C284.531 335.737 284.334 335.664 284.063 335.664C283.826 335.664 283.639 335.721 283.502 335.835C283.368 335.949 283.302 336.105 283.302 336.304H281.891C281.891 335.998 281.985 335.715 282.174 335.454C282.363 335.194 282.63 334.99 282.975 334.844C283.32 334.694 283.707 334.619 284.137 334.619C284.788 334.619 285.304 334.784 285.685 335.112C286.069 335.438 286.261 335.897 286.261 336.489V338.779C286.264 339.281 286.334 339.66 286.471 339.917V340H285.045ZM283.878 339.019C284.086 339.019 284.278 338.973 284.454 338.882C284.63 338.787 284.76 338.662 284.845 338.506V337.598H284.317C283.611 337.598 283.235 337.842 283.189 338.33L283.185 338.413C283.185 338.589 283.246 338.734 283.37 338.848C283.494 338.962 283.663 339.019 283.878 339.019ZM289.644 334.717L289.688 335.327C290.065 334.855 290.571 334.619 291.206 334.619C291.766 334.619 292.183 334.784 292.456 335.112C292.729 335.441 292.869 335.933 292.876 336.587V340H291.465V336.621C291.465 336.322 291.4 336.105 291.27 335.972C291.139 335.835 290.923 335.767 290.62 335.767C290.223 335.767 289.925 335.936 289.727 336.274V340H288.315V334.717H289.644ZM294.745 337.319C294.745 336.509 294.937 335.856 295.321 335.361C295.709 334.867 296.229 334.619 296.884 334.619C297.463 334.619 297.914 334.818 298.236 335.215L298.295 334.717H299.574V339.824C299.574 340.286 299.468 340.688 299.257 341.03C299.049 341.372 298.754 341.632 298.373 341.812C297.992 341.991 297.546 342.08 297.035 342.08C296.648 342.08 296.27 342.002 295.902 341.846C295.535 341.693 295.256 341.494 295.067 341.25L295.692 340.391C296.044 340.785 296.47 340.981 296.972 340.981C297.346 340.981 297.637 340.881 297.846 340.679C298.054 340.48 298.158 340.197 298.158 339.829V339.546C297.833 339.914 297.405 340.098 296.874 340.098C296.239 340.098 295.725 339.85 295.331 339.355C294.94 338.857 294.745 338.198 294.745 337.378V337.319ZM296.156 337.422C296.156 337.9 296.252 338.276 296.444 338.55C296.636 338.82 296.9 338.955 297.235 338.955C297.665 338.955 297.973 338.794 298.158 338.472V336.25C297.969 335.928 297.665 335.767 297.245 335.767C296.907 335.767 296.64 335.905 296.444 336.182C296.252 336.458 296.156 336.872 296.156 337.422ZM304.827 339.463C304.479 339.886 303.997 340.098 303.382 340.098C302.815 340.098 302.382 339.935 302.083 339.609C301.787 339.284 301.635 338.807 301.629 338.179V334.717H303.04V338.13C303.04 338.68 303.291 338.955 303.792 338.955C304.271 338.955 304.599 338.789 304.778 338.457V334.717H306.194V340H304.866L304.827 339.463ZM309.558 334.717L309.602 335.327C309.979 334.855 310.485 334.619 311.12 334.619C311.68 334.619 312.097 334.784 312.37 335.112C312.644 335.441 312.784 335.933 312.79 336.587V340H311.379V336.621C311.379 336.322 311.314 336.105 311.184 335.972C311.053 335.835 310.837 335.767 310.534 335.767C310.137 335.767 309.839 335.936 309.641 336.274V340H308.229V334.717H309.558ZM317.926 340C317.861 339.873 317.813 339.715 317.784 339.526C317.442 339.907 316.998 340.098 316.451 340.098C315.934 340.098 315.504 339.948 315.162 339.648C314.824 339.349 314.654 338.971 314.654 338.516C314.654 337.956 314.861 337.526 315.274 337.227C315.691 336.927 316.292 336.776 317.076 336.772H317.726V336.47C317.726 336.226 317.662 336.03 317.535 335.884C317.411 335.737 317.215 335.664 316.944 335.664C316.707 335.664 316.52 335.721 316.383 335.835C316.249 335.949 316.183 336.105 316.183 336.304H314.771C314.771 335.998 314.866 335.715 315.055 335.454C315.243 335.194 315.51 334.99 315.855 334.844C316.201 334.694 316.588 334.619 317.018 334.619C317.669 334.619 318.185 334.784 318.565 335.112C318.95 335.438 319.142 335.897 319.142 336.489V338.779C319.145 339.281 319.215 339.66 319.352 339.917V340H317.926ZM316.759 339.019C316.967 339.019 317.159 338.973 317.335 338.882C317.511 338.787 317.641 338.662 317.726 338.506V337.598H317.198C316.492 337.598 316.116 337.842 316.07 338.33L316.065 338.413C316.065 338.589 316.127 338.734 316.251 338.848C316.375 338.962 316.544 339.019 316.759 339.019ZM322.524 334.717L322.568 335.327C322.946 334.855 323.452 334.619 324.087 334.619C324.647 334.619 325.063 334.784 325.337 335.112C325.61 335.441 325.75 335.933 325.757 336.587V340H324.346V336.621C324.346 336.322 324.281 336.105 324.15 335.972C324.02 335.835 323.804 335.767 323.501 335.767C323.104 335.767 322.806 335.936 322.607 336.274V340H321.196V334.717H322.524Z" fill="white"/>
<rect x="256.748" y="103" width="78.3707" height="78.3707" transform="rotate(28.794 256.748 103)" fill="#A5B1C2"/>
<rect x="60.7482" y="471" width="78.3707" height="78.3707" transform="rotate(28.794 60.7482 471)" fill="#A5B1C2"/>
<defs>
<filter id="filter0_d" x="18.9999" y="225.02" width="180.037" height="188.517" filterUnits="userSpaceOnUse" color-interpolation-filters="sRGB">
<feFlood flood-opacity="0" result="BackgroundImageFix"/>
<feColorMatrix in="SourceAlpha" type="matrix" values="0 0 0 0 0 0 0 0 0 0 0 0 0 0 0 0 0 0 127 0" result="hardAlpha"/>
<feOffset dy="4"/>
<feGaussianBlur stdDeviation="2"/>
<feComposite in2="hardAlpha" operator="out"/>
<feColorMatrix type="matrix" values="0 0 0 0 0 0 0 0 0 0 0 0 0 0 0 0 0 0 0.25 0"/>
<feBlend mode="normal" in2="BackgroundImageFix" result="effect1_dropShadow"/>
<feBlend mode="normal" in="SourceGraphic" in2="effect1_dropShadow" result="shape"/>
</filter>
<filter id="filter1_d" x="170.674" y="309.586" width="159.084" height="22.6094" filterUnits="userSpaceOnUse" color-interpolation-filters="sRGB">
<feFlood flood-opacity="0" result="BackgroundImageFix"/>
<feColorMatrix in="SourceAlpha" type="matrix" values="0 0 0 0 0 0 0 0 0 0 0 0 0 0 0 0 0 0 127 0" result="hardAlpha"/>
<feOffset dy="4"/>
<feGaussianBlur stdDeviation="2"/>
<feComposite in2="hardAlpha" operator="out"/>
<feColorMatrix type="matrix" values="0 0 0 0 0 0 0 0 0 0 0 0 0 0 0 0 0 0 0.25 0"/>
<feBlend mode="normal" in2="BackgroundImageFix" result="effect1_dropShadow"/>
<feBlend mode="normal" in="SourceGraphic" in2="effect1_dropShadow" result="shape"/>
</filter>
</defs>
</svg>
